ISO-10303-21;
HEADER;
/* Generated by software containing ST-Developer
 * from STEP Tools, Inc. (www.steptools.com) 
 */
/* OPTION: using custom schema-name function */

FILE_DESCRIPTION(
/* description */ (''),
/* implementation_level */ '2;1');

FILE_NAME(
/* name */ 'KXOB081K06F',
/* time_stamp */ '2026-06-18T11:59:51+02:00',
/* author */ (''),
/* organization */ (''),
/* preprocessor_version */ 'ST-DEVELOPER v19.2',
/* originating_system */ 'Rhino 8.8',
/* authorisation */ '');

FILE_SCHEMA (('CONFIG_CONTROL_DESIGN'));
ENDSEC;

DATA;
#10=SHAPE_REPRESENTATION_RELATIONSHIP('','',#956,#20);
#11=FACE_BOUND('',#192,.T.);
#12=FACE_BOUND('',#193,.T.);
#13=FACE_BOUND('',#194,.T.);
#14=FACE_BOUND('',#195,.T.);
#15=FACE_BOUND('',#196,.T.);
#16=FACE_BOUND('',#197,.T.);
#17=MANIFOLD_SOLID_BREP('Body4',#21);
#18=MANIFOLD_SOLID_BREP('Body3',#22);
#19=MANIFOLD_SOLID_BREP('Body1',#23);
#20=ADVANCED_BREP_SHAPE_REPRESENTATION('brep_rep_0',(#17,#18,#19,#1014),
#955);
#21=CLOSED_SHELL('',(#24,#25,#26,#27,#28,#29));
#22=CLOSED_SHELL('',(#30,#31,#32,#33,#34,#35));
#23=CLOSED_SHELL('',(#36,#37,#38,#39,#40,#41,#42,#43,#44,#45,#46,#47,#48,
#49,#50,#51,#52,#53,#54,#55,#56,#57,#58,#59,#60,#61,#62,#63,#64,#65,#66,
#67,#68,#69,#70,#71,#72,#73,#74,#75,#76,#77,#78,#79));
#24=ADVANCED_FACE('',(#80),#814,.T.);
#25=ADVANCED_FACE('',(#81),#815,.T.);
#26=ADVANCED_FACE('',(#82),#816,.T.);
#27=ADVANCED_FACE('',(#83),#817,.T.);
#28=ADVANCED_FACE('',(#84),#818,.T.);
#29=ADVANCED_FACE('',(#85),#819,.T.);
#30=ADVANCED_FACE('',(#86),#820,.T.);
#31=ADVANCED_FACE('',(#87),#821,.T.);
#32=ADVANCED_FACE('',(#88),#822,.T.);
#33=ADVANCED_FACE('',(#89),#823,.T.);
#34=ADVANCED_FACE('',(#90),#824,.T.);
#35=ADVANCED_FACE('',(#91),#825,.T.);
#36=ADVANCED_FACE('',(#92),#826,.T.);
#37=ADVANCED_FACE('',(#93),#827,.T.);
#38=ADVANCED_FACE('',(#94),#828,.T.);
#39=ADVANCED_FACE('',(#95),#829,.T.);
#40=ADVANCED_FACE('',(#96),#830,.T.);
#41=ADVANCED_FACE('',(#97),#831,.T.);
#42=ADVANCED_FACE('',(#98),#832,.T.);
#43=ADVANCED_FACE('',(#99),#833,.T.);
#44=ADVANCED_FACE('',(#100),#834,.T.);
#45=ADVANCED_FACE('',(#101),#835,.T.);
#46=ADVANCED_FACE('',(#102),#836,.T.);
#47=ADVANCED_FACE('',(#103),#837,.T.);
#48=ADVANCED_FACE('',(#104),#838,.T.);
#49=ADVANCED_FACE('',(#105),#839,.T.);
#50=ADVANCED_FACE('',(#106),#840,.T.);
#51=ADVANCED_FACE('',(#107),#841,.T.);
#52=ADVANCED_FACE('',(#108),#842,.T.);
#53=ADVANCED_FACE('',(#109),#843,.T.);
#54=ADVANCED_FACE('',(#110),#844,.T.);
#55=ADVANCED_FACE('',(#111),#845,.T.);
#56=ADVANCED_FACE('',(#112),#846,.T.);
#57=ADVANCED_FACE('',(#113),#847,.T.);
#58=ADVANCED_FACE('',(#114),#848,.T.);
#59=ADVANCED_FACE('',(#115),#849,.T.);
#60=ADVANCED_FACE('',(#116),#850,.T.);
#61=ADVANCED_FACE('',(#117),#851,.T.);
#62=ADVANCED_FACE('',(#118),#852,.T.);
#63=ADVANCED_FACE('',(#119),#853,.T.);
#64=ADVANCED_FACE('',(#120),#854,.T.);
#65=ADVANCED_FACE('',(#121),#855,.T.);
#66=ADVANCED_FACE('',(#122),#856,.T.);
#67=ADVANCED_FACE('',(#123),#857,.T.);
#68=ADVANCED_FACE('',(#124),#858,.T.);
#69=ADVANCED_FACE('',(#125),#859,.T.);
#70=ADVANCED_FACE('',(#126),#860,.T.);
#71=ADVANCED_FACE('',(#127),#861,.T.);
#72=ADVANCED_FACE('',(#128),#862,.T.);
#73=ADVANCED_FACE('',(#129),#863,.T.);
#74=ADVANCED_FACE('',(#130),#864,.T.);
#75=ADVANCED_FACE('',(#131),#865,.T.);
#76=ADVANCED_FACE('',(#132),#866,.T.);
#77=ADVANCED_FACE('',(#133),#867,.T.);
#78=ADVANCED_FACE('',(#134),#868,.T.);
#79=ADVANCED_FACE('',(#135,#11,#12,#13,#14,#15,#16),#869,.T.);
#80=FACE_OUTER_BOUND('',#136,.T.);
#81=FACE_OUTER_BOUND('',#137,.T.);
#82=FACE_OUTER_BOUND('',#138,.T.);
#83=FACE_OUTER_BOUND('',#139,.T.);
#84=FACE_OUTER_BOUND('',#140,.T.);
#85=FACE_OUTER_BOUND('',#141,.T.);
#86=FACE_OUTER_BOUND('',#142,.T.);
#87=FACE_OUTER_BOUND('',#143,.T.);
#88=FACE_OUTER_BOUND('',#144,.T.);
#89=FACE_OUTER_BOUND('',#145,.T.);
#90=FACE_OUTER_BOUND('',#146,.T.);
#91=FACE_OUTER_BOUND('',#147,.T.);
#92=FACE_OUTER_BOUND('',#148,.T.);
#93=FACE_OUTER_BOUND('',#149,.T.);
#94=FACE_OUTER_BOUND('',#150,.T.);
#95=FACE_OUTER_BOUND('',#151,.T.);
#96=FACE_OUTER_BOUND('',#152,.T.);
#97=FACE_OUTER_BOUND('',#153,.T.);
#98=FACE_OUTER_BOUND('',#154,.T.);
#99=FACE_OUTER_BOUND('',#155,.T.);
#100=FACE_OUTER_BOUND('',#156,.T.);
#101=FACE_OUTER_BOUND('',#157,.T.);
#102=FACE_OUTER_BOUND('',#158,.T.);
#103=FACE_OUTER_BOUND('',#159,.T.);
#104=FACE_OUTER_BOUND('',#160,.T.);
#105=FACE_OUTER_BOUND('',#161,.T.);
#106=FACE_OUTER_BOUND('',#162,.T.);
#107=FACE_OUTER_BOUND('',#163,.T.);
#108=FACE_OUTER_BOUND('',#164,.T.);
#109=FACE_OUTER_BOUND('',#165,.T.);
#110=FACE_OUTER_BOUND('',#166,.T.);
#111=FACE_OUTER_BOUND('',#167,.T.);
#112=FACE_OUTER_BOUND('',#168,.T.);
#113=FACE_OUTER_BOUND('',#169,.T.);
#114=FACE_OUTER_BOUND('',#170,.T.);
#115=FACE_OUTER_BOUND('',#171,.T.);
#116=FACE_OUTER_BOUND('',#172,.T.);
#117=FACE_OUTER_BOUND('',#173,.T.);
#118=FACE_OUTER_BOUND('',#174,.T.);
#119=FACE_OUTER_BOUND('',#175,.T.);
#120=FACE_OUTER_BOUND('',#176,.T.);
#121=FACE_OUTER_BOUND('',#177,.T.);
#122=FACE_OUTER_BOUND('',#178,.T.);
#123=FACE_OUTER_BOUND('',#179,.T.);
#124=FACE_OUTER_BOUND('',#180,.T.);
#125=FACE_OUTER_BOUND('',#181,.T.);
#126=FACE_OUTER_BOUND('',#182,.T.);
#127=FACE_OUTER_BOUND('',#183,.T.);
#128=FACE_OUTER_BOUND('',#184,.T.);
#129=FACE_OUTER_BOUND('',#185,.T.);
#130=FACE_OUTER_BOUND('',#186,.T.);
#131=FACE_OUTER_BOUND('',#187,.T.);
#132=FACE_OUTER_BOUND('',#188,.T.);
#133=FACE_OUTER_BOUND('',#189,.T.);
#134=FACE_OUTER_BOUND('',#190,.T.);
#135=FACE_OUTER_BOUND('',#191,.T.);
#136=EDGE_LOOP('',(#198,#199,#200,#201));
#137=EDGE_LOOP('',(#202,#203,#204,#205));
#138=EDGE_LOOP('',(#206,#207,#208,#209));
#139=EDGE_LOOP('',(#210,#211,#212,#213));
#140=EDGE_LOOP('',(#214,#215,#216,#217));
#141=EDGE_LOOP('',(#218,#219,#220,#221));
#142=EDGE_LOOP('',(#222,#223,#224,#225));
#143=EDGE_LOOP('',(#226,#227,#228,#229));
#144=EDGE_LOOP('',(#230,#231,#232,#233));
#145=EDGE_LOOP('',(#234,#235,#236,#237));
#146=EDGE_LOOP('',(#238,#239,#240,#241));
#147=EDGE_LOOP('',(#242,#243,#244,#245));
#148=EDGE_LOOP('',(#246,#247,#248,#249));
#149=EDGE_LOOP('',(#250,#251,#252,#253));
#150=EDGE_LOOP('',(#254,#255,#256,#257));
#151=EDGE_LOOP('',(#258,#259,#260,#261));
#152=EDGE_LOOP('',(#262,#263,#264,#265,#266,#267,#268,#269,#270,#271,#272,
#273));
#153=EDGE_LOOP('',(#274,#275,#276,#277));
#154=EDGE_LOOP('',(#278,#279,#280,#281));
#155=EDGE_LOOP('',(#282,#283,#284,#285));
#156=EDGE_LOOP('',(#286,#287,#288,#289));
#157=EDGE_LOOP('',(#290,#291,#292,#293,#294,#295,#296,#297));
#158=EDGE_LOOP('',(#298,#299,#300,#301));
#159=EDGE_LOOP('',(#302,#303,#304,#305));
#160=EDGE_LOOP('',(#306,#307,#308,#309));
#161=EDGE_LOOP('',(#310,#311,#312,#313));
#162=EDGE_LOOP('',(#314,#315,#316,#317));
#163=EDGE_LOOP('',(#318,#319,#320,#321));
#164=EDGE_LOOP('',(#322,#323,#324,#325));
#165=EDGE_LOOP('',(#326,#327,#328,#329));
#166=EDGE_LOOP('',(#330,#331,#332,#333));
#167=EDGE_LOOP('',(#334,#335,#336,#337));
#168=EDGE_LOOP('',(#338,#339,#340,#341));
#169=EDGE_LOOP('',(#342,#343,#344,#345));
#170=EDGE_LOOP('',(#346,#347,#348,#349));
#171=EDGE_LOOP('',(#350,#351,#352,#353));
#172=EDGE_LOOP('',(#354,#355,#356,#357));
#173=EDGE_LOOP('',(#358,#359,#360,#361));
#174=EDGE_LOOP('',(#362,#363,#364,#365));
#175=EDGE_LOOP('',(#366,#367,#368,#369));
#176=EDGE_LOOP('',(#370,#371,#372,#373));
#177=EDGE_LOOP('',(#374,#375,#376,#377));
#178=EDGE_LOOP('',(#378,#379,#380,#381));
#179=EDGE_LOOP('',(#382,#383,#384,#385));
#180=EDGE_LOOP('',(#386,#387,#388,#389));
#181=EDGE_LOOP('',(#390,#391,#392,#393));
#182=EDGE_LOOP('',(#394,#395,#396,#397));
#183=EDGE_LOOP('',(#398,#399,#400,#401));
#184=EDGE_LOOP('',(#402,#403,#404,#405));
#185=EDGE_LOOP('',(#406,#407,#408,#409));
#186=EDGE_LOOP('',(#410,#411,#412,#413));
#187=EDGE_LOOP('',(#414,#415,#416,#417));
#188=EDGE_LOOP('',(#418,#419,#420,#421));
#189=EDGE_LOOP('',(#422,#423,#424,#425,#426,#427,#428,#429));
#190=EDGE_LOOP('',(#430,#431,#432,#433));
#191=EDGE_LOOP('',(#434,#435,#436,#437));
#192=EDGE_LOOP('',(#438,#439,#440,#441));
#193=EDGE_LOOP('',(#442,#443,#444,#445));
#194=EDGE_LOOP('',(#446,#447,#448,#449));
#195=EDGE_LOOP('',(#450,#451,#452,#453));
#196=EDGE_LOOP('',(#454,#455,#456,#457));
#197=EDGE_LOOP('',(#458,#459,#460,#461));
#198=ORIENTED_EDGE('',*,*,#462,.T.);
#199=ORIENTED_EDGE('',*,*,#463,.T.);
#200=ORIENTED_EDGE('',*,*,#464,.T.);
#201=ORIENTED_EDGE('',*,*,#465,.T.);
#202=ORIENTED_EDGE('',*,*,#466,.T.);
#203=ORIENTED_EDGE('',*,*,#465,.F.);
#204=ORIENTED_EDGE('',*,*,#467,.T.);
#205=ORIENTED_EDGE('',*,*,#468,.T.);
#206=ORIENTED_EDGE('',*,*,#469,.T.);
#207=ORIENTED_EDGE('',*,*,#468,.F.);
#208=ORIENTED_EDGE('',*,*,#470,.T.);
#209=ORIENTED_EDGE('',*,*,#471,.T.);
#210=ORIENTED_EDGE('',*,*,#472,.T.);
#211=ORIENTED_EDGE('',*,*,#471,.F.);
#212=ORIENTED_EDGE('',*,*,#473,.T.);
#213=ORIENTED_EDGE('',*,*,#463,.F.);
#214=ORIENTED_EDGE('',*,*,#472,.F.);
#215=ORIENTED_EDGE('',*,*,#462,.F.);
#216=ORIENTED_EDGE('',*,*,#466,.F.);
#217=ORIENTED_EDGE('',*,*,#469,.F.);
#218=ORIENTED_EDGE('',*,*,#473,.F.);
#219=ORIENTED_EDGE('',*,*,#470,.F.);
#220=ORIENTED_EDGE('',*,*,#467,.F.);
#221=ORIENTED_EDGE('',*,*,#464,.F.);
#222=ORIENTED_EDGE('',*,*,#474,.T.);
#223=ORIENTED_EDGE('',*,*,#475,.T.);
#224=ORIENTED_EDGE('',*,*,#476,.T.);
#225=ORIENTED_EDGE('',*,*,#477,.T.);
#226=ORIENTED_EDGE('',*,*,#478,.T.);
#227=ORIENTED_EDGE('',*,*,#477,.F.);
#228=ORIENTED_EDGE('',*,*,#479,.T.);
#229=ORIENTED_EDGE('',*,*,#480,.T.);
#230=ORIENTED_EDGE('',*,*,#481,.T.);
#231=ORIENTED_EDGE('',*,*,#480,.F.);
#232=ORIENTED_EDGE('',*,*,#482,.T.);
#233=ORIENTED_EDGE('',*,*,#483,.T.);
#234=ORIENTED_EDGE('',*,*,#484,.T.);
#235=ORIENTED_EDGE('',*,*,#483,.F.);
#236=ORIENTED_EDGE('',*,*,#485,.T.);
#237=ORIENTED_EDGE('',*,*,#475,.F.);
#238=ORIENTED_EDGE('',*,*,#484,.F.);
#239=ORIENTED_EDGE('',*,*,#474,.F.);
#240=ORIENTED_EDGE('',*,*,#478,.F.);
#241=ORIENTED_EDGE('',*,*,#481,.F.);
#242=ORIENTED_EDGE('',*,*,#485,.F.);
#243=ORIENTED_EDGE('',*,*,#482,.F.);
#244=ORIENTED_EDGE('',*,*,#479,.F.);
#245=ORIENTED_EDGE('',*,*,#476,.F.);
#246=ORIENTED_EDGE('',*,*,#487,.F.);
#247=ORIENTED_EDGE('',*,*,#488,.F.);
#248=ORIENTED_EDGE('',*,*,#489,.F.);
#249=ORIENTED_EDGE('',*,*,#486,.F.);
#250=ORIENTED_EDGE('',*,*,#491,.F.);
#251=ORIENTED_EDGE('',*,*,#492,.F.);
#252=ORIENTED_EDGE('',*,*,#487,.T.);
#253=ORIENTED_EDGE('',*,*,#490,.F.);
#254=ORIENTED_EDGE('',*,*,#494,.F.);
#255=ORIENTED_EDGE('',*,*,#495,.F.);
#256=ORIENTED_EDGE('',*,*,#491,.T.);
#257=ORIENTED_EDGE('',*,*,#493,.F.);
#258=ORIENTED_EDGE('',*,*,#496,.F.);
#259=ORIENTED_EDGE('',*,*,#488,.T.);
#260=ORIENTED_EDGE('',*,*,#492,.T.);
#261=ORIENTED_EDGE('',*,*,#495,.T.);
#262=ORIENTED_EDGE('',*,*,#490,.T.);
#263=ORIENTED_EDGE('',*,*,#486,.T.);
#264=ORIENTED_EDGE('',*,*,#497,.F.);
#265=ORIENTED_EDGE('',*,*,#498,.F.);
#266=ORIENTED_EDGE('',*,*,#499,.F.);
#267=ORIENTED_EDGE('',*,*,#500,.F.);
#268=ORIENTED_EDGE('',*,*,#501,.F.);
#269=ORIENTED_EDGE('',*,*,#502,.F.);
#270=ORIENTED_EDGE('',*,*,#503,.F.);
#271=ORIENTED_EDGE('',*,*,#504,.F.);
#272=ORIENTED_EDGE('',*,*,#505,.F.);
#273=ORIENTED_EDGE('',*,*,#493,.T.);
#274=ORIENTED_EDGE('',*,*,#506,.F.);
#275=ORIENTED_EDGE('',*,*,#507,.F.);
#276=ORIENTED_EDGE('',*,*,#508,.F.);
#277=ORIENTED_EDGE('',*,*,#500,.T.);
#278=ORIENTED_EDGE('',*,*,#509,.F.);
#279=ORIENTED_EDGE('',*,*,#510,.F.);
#280=ORIENTED_EDGE('',*,*,#511,.F.);
#281=ORIENTED_EDGE('',*,*,#502,.T.);
#282=ORIENTED_EDGE('',*,*,#508,.T.);
#283=ORIENTED_EDGE('',*,*,#512,.F.);
#284=ORIENTED_EDGE('',*,*,#509,.T.);
#285=ORIENTED_EDGE('',*,*,#501,.T.);
#286=ORIENTED_EDGE('',*,*,#507,.T.);
#287=ORIENTED_EDGE('',*,*,#513,.F.);
#288=ORIENTED_EDGE('',*,*,#510,.T.);
#289=ORIENTED_EDGE('',*,*,#512,.T.);
#290=ORIENTED_EDGE('',*,*,#511,.T.);
#291=ORIENTED_EDGE('',*,*,#513,.T.);
#292=ORIENTED_EDGE('',*,*,#506,.T.);
#293=ORIENTED_EDGE('',*,*,#499,.T.);
#294=ORIENTED_EDGE('',*,*,#514,.T.);
#295=ORIENTED_EDGE('',*,*,#515,.T.);
#296=ORIENTED_EDGE('',*,*,#516,.T.);
#297=ORIENTED_EDGE('',*,*,#503,.T.);
#298=ORIENTED_EDGE('',*,*,#504,.T.);
#299=ORIENTED_EDGE('',*,*,#516,.F.);
#300=ORIENTED_EDGE('',*,*,#517,.T.);
#301=ORIENTED_EDGE('',*,*,#518,.T.);
#302=ORIENTED_EDGE('',*,*,#520,.F.);
#303=ORIENTED_EDGE('',*,*,#521,.F.);
#304=ORIENTED_EDGE('',*,*,#522,.F.);
#305=ORIENTED_EDGE('',*,*,#519,.F.);
#306=ORIENTED_EDGE('',*,*,#524,.F.);
#307=ORIENTED_EDGE('',*,*,#525,.F.);
#308=ORIENTED_EDGE('',*,*,#520,.T.);
#309=ORIENTED_EDGE('',*,*,#523,.F.);
#310=ORIENTED_EDGE('',*,*,#527,.F.);
#311=ORIENTED_EDGE('',*,*,#528,.F.);
#312=ORIENTED_EDGE('',*,*,#524,.T.);
#313=ORIENTED_EDGE('',*,*,#526,.F.);
#314=ORIENTED_EDGE('',*,*,#522,.T.);
#315=ORIENTED_EDGE('',*,*,#530,.F.);
#316=ORIENTED_EDGE('',*,*,#527,.T.);
#317=ORIENTED_EDGE('',*,*,#529,.F.);
#318=ORIENTED_EDGE('',*,*,#521,.T.);
#319=ORIENTED_EDGE('',*,*,#525,.T.);
#320=ORIENTED_EDGE('',*,*,#528,.T.);
#321=ORIENTED_EDGE('',*,*,#530,.T.);
#322=ORIENTED_EDGE('',*,*,#532,.F.);
#323=ORIENTED_EDGE('',*,*,#533,.F.);
#324=ORIENTED_EDGE('',*,*,#534,.F.);
#325=ORIENTED_EDGE('',*,*,#531,.F.);
#326=ORIENTED_EDGE('',*,*,#536,.F.);
#327=ORIENTED_EDGE('',*,*,#537,.F.);
#328=ORIENTED_EDGE('',*,*,#532,.T.);
#329=ORIENTED_EDGE('',*,*,#535,.F.);
#330=ORIENTED_EDGE('',*,*,#539,.F.);
#331=ORIENTED_EDGE('',*,*,#540,.F.);
#332=ORIENTED_EDGE('',*,*,#536,.T.);
#333=ORIENTED_EDGE('',*,*,#538,.F.);
#334=ORIENTED_EDGE('',*,*,#534,.T.);
#335=ORIENTED_EDGE('',*,*,#542,.F.);
#336=ORIENTED_EDGE('',*,*,#539,.T.);
#337=ORIENTED_EDGE('',*,*,#541,.F.);
#338=ORIENTED_EDGE('',*,*,#533,.T.);
#339=ORIENTED_EDGE('',*,*,#537,.T.);
#340=ORIENTED_EDGE('',*,*,#540,.T.);
#341=ORIENTED_EDGE('',*,*,#542,.T.);
#342=ORIENTED_EDGE('',*,*,#544,.F.);
#343=ORIENTED_EDGE('',*,*,#545,.F.);
#344=ORIENTED_EDGE('',*,*,#546,.F.);
#345=ORIENTED_EDGE('',*,*,#543,.F.);
#346=ORIENTED_EDGE('',*,*,#548,.F.);
#347=ORIENTED_EDGE('',*,*,#549,.F.);
#348=ORIENTED_EDGE('',*,*,#544,.T.);
#349=ORIENTED_EDGE('',*,*,#547,.F.);
#350=ORIENTED_EDGE('',*,*,#551,.F.);
#351=ORIENTED_EDGE('',*,*,#552,.F.);
#352=ORIENTED_EDGE('',*,*,#548,.T.);
#353=ORIENTED_EDGE('',*,*,#550,.F.);
#354=ORIENTED_EDGE('',*,*,#546,.T.);
#355=ORIENTED_EDGE('',*,*,#554,.F.);
#356=ORIENTED_EDGE('',*,*,#551,.T.);
#357=ORIENTED_EDGE('',*,*,#553,.F.);
#358=ORIENTED_EDGE('',*,*,#545,.T.);
#359=ORIENTED_EDGE('',*,*,#549,.T.);
#360=ORIENTED_EDGE('',*,*,#552,.T.);
#361=ORIENTED_EDGE('',*,*,#554,.T.);
#362=ORIENTED_EDGE('',*,*,#556,.F.);
#363=ORIENTED_EDGE('',*,*,#557,.F.);
#364=ORIENTED_EDGE('',*,*,#558,.F.);
#365=ORIENTED_EDGE('',*,*,#555,.F.);
#366=ORIENTED_EDGE('',*,*,#560,.F.);
#367=ORIENTED_EDGE('',*,*,#561,.F.);
#368=ORIENTED_EDGE('',*,*,#556,.T.);
#369=ORIENTED_EDGE('',*,*,#559,.F.);
#370=ORIENTED_EDGE('',*,*,#563,.F.);
#371=ORIENTED_EDGE('',*,*,#564,.F.);
#372=ORIENTED_EDGE('',*,*,#560,.T.);
#373=ORIENTED_EDGE('',*,*,#562,.F.);
#374=ORIENTED_EDGE('',*,*,#558,.T.);
#375=ORIENTED_EDGE('',*,*,#566,.F.);
#376=ORIENTED_EDGE('',*,*,#563,.T.);
#377=ORIENTED_EDGE('',*,*,#565,.F.);
#378=ORIENTED_EDGE('',*,*,#557,.T.);
#379=ORIENTED_EDGE('',*,*,#561,.T.);
#380=ORIENTED_EDGE('',*,*,#564,.T.);
#381=ORIENTED_EDGE('',*,*,#566,.T.);
#382=ORIENTED_EDGE('',*,*,#568,.F.);
#383=ORIENTED_EDGE('',*,*,#569,.F.);
#384=ORIENTED_EDGE('',*,*,#570,.F.);
#385=ORIENTED_EDGE('',*,*,#567,.F.);
#386=ORIENTED_EDGE('',*,*,#572,.F.);
#387=ORIENTED_EDGE('',*,*,#573,.F.);
#388=ORIENTED_EDGE('',*,*,#568,.T.);
#389=ORIENTED_EDGE('',*,*,#571,.F.);
#390=ORIENTED_EDGE('',*,*,#575,.F.);
#391=ORIENTED_EDGE('',*,*,#576,.F.);
#392=ORIENTED_EDGE('',*,*,#572,.T.);
#393=ORIENTED_EDGE('',*,*,#574,.F.);
#394=ORIENTED_EDGE('',*,*,#570,.T.);
#395=ORIENTED_EDGE('',*,*,#578,.F.);
#396=ORIENTED_EDGE('',*,*,#575,.T.);
#397=ORIENTED_EDGE('',*,*,#577,.F.);
#398=ORIENTED_EDGE('',*,*,#569,.T.);
#399=ORIENTED_EDGE('',*,*,#573,.T.);
#400=ORIENTED_EDGE('',*,*,#576,.T.);
#401=ORIENTED_EDGE('',*,*,#578,.T.);
#402=ORIENTED_EDGE('',*,*,#580,.F.);
#403=ORIENTED_EDGE('',*,*,#581,.F.);
#404=ORIENTED_EDGE('',*,*,#582,.F.);
#405=ORIENTED_EDGE('',*,*,#579,.F.);
#406=ORIENTED_EDGE('',*,*,#584,.F.);
#407=ORIENTED_EDGE('',*,*,#585,.F.);
#408=ORIENTED_EDGE('',*,*,#580,.T.);
#409=ORIENTED_EDGE('',*,*,#583,.F.);
#410=ORIENTED_EDGE('',*,*,#587,.F.);
#411=ORIENTED_EDGE('',*,*,#588,.F.);
#412=ORIENTED_EDGE('',*,*,#584,.T.);
#413=ORIENTED_EDGE('',*,*,#586,.F.);
#414=ORIENTED_EDGE('',*,*,#582,.T.);
#415=ORIENTED_EDGE('',*,*,#590,.F.);
#416=ORIENTED_EDGE('',*,*,#587,.T.);
#417=ORIENTED_EDGE('',*,*,#589,.F.);
#418=ORIENTED_EDGE('',*,*,#581,.T.);
#419=ORIENTED_EDGE('',*,*,#585,.T.);
#420=ORIENTED_EDGE('',*,*,#588,.T.);
#421=ORIENTED_EDGE('',*,*,#590,.T.);
#422=ORIENTED_EDGE('',*,*,#494,.T.);
#423=ORIENTED_EDGE('',*,*,#505,.T.);
#424=ORIENTED_EDGE('',*,*,#518,.F.);
#425=ORIENTED_EDGE('',*,*,#591,.T.);
#426=ORIENTED_EDGE('',*,*,#592,.T.);
#427=ORIENTED_EDGE('',*,*,#497,.T.);
#428=ORIENTED_EDGE('',*,*,#489,.T.);
#429=ORIENTED_EDGE('',*,*,#496,.T.);
#430=ORIENTED_EDGE('',*,*,#498,.T.);
#431=ORIENTED_EDGE('',*,*,#592,.F.);
#432=ORIENTED_EDGE('',*,*,#593,.T.);
#433=ORIENTED_EDGE('',*,*,#514,.F.);
#434=ORIENTED_EDGE('',*,*,#515,.F.);
#435=ORIENTED_EDGE('',*,*,#593,.F.);
#436=ORIENTED_EDGE('',*,*,#591,.F.);
#437=ORIENTED_EDGE('',*,*,#517,.F.);
#438=ORIENTED_EDGE('',*,*,#523,.T.);
#439=ORIENTED_EDGE('',*,*,#519,.T.);
#440=ORIENTED_EDGE('',*,*,#529,.T.);
#441=ORIENTED_EDGE('',*,*,#526,.T.);
#442=ORIENTED_EDGE('',*,*,#535,.T.);
#443=ORIENTED_EDGE('',*,*,#531,.T.);
#444=ORIENTED_EDGE('',*,*,#541,.T.);
#445=ORIENTED_EDGE('',*,*,#538,.T.);
#446=ORIENTED_EDGE('',*,*,#547,.T.);
#447=ORIENTED_EDGE('',*,*,#543,.T.);
#448=ORIENTED_EDGE('',*,*,#553,.T.);
#449=ORIENTED_EDGE('',*,*,#550,.T.);
#450=ORIENTED_EDGE('',*,*,#559,.T.);
#451=ORIENTED_EDGE('',*,*,#555,.T.);
#452=ORIENTED_EDGE('',*,*,#565,.T.);
#453=ORIENTED_EDGE('',*,*,#562,.T.);
#454=ORIENTED_EDGE('',*,*,#571,.T.);
#455=ORIENTED_EDGE('',*,*,#567,.T.);
#456=ORIENTED_EDGE('',*,*,#577,.T.);
#457=ORIENTED_EDGE('',*,*,#574,.T.);
#458=ORIENTED_EDGE('',*,*,#583,.T.);
#459=ORIENTED_EDGE('',*,*,#579,.T.);
#460=ORIENTED_EDGE('',*,*,#589,.T.);
#461=ORIENTED_EDGE('',*,*,#586,.T.);
#462=EDGE_CURVE('',#726,#727,#594,.T.);
#463=EDGE_CURVE('',#727,#728,#595,.T.);
#464=EDGE_CURVE('',#728,#729,#596,.T.);
#465=EDGE_CURVE('',#729,#726,#597,.T.);
#466=EDGE_CURVE('',#730,#726,#598,.T.);
#467=EDGE_CURVE('',#729,#731,#599,.T.);
#468=EDGE_CURVE('',#731,#730,#600,.T.);
#469=EDGE_CURVE('',#732,#730,#601,.T.);
#470=EDGE_CURVE('',#731,#733,#602,.T.);
#471=EDGE_CURVE('',#733,#732,#603,.T.);
#472=EDGE_CURVE('',#727,#732,#604,.T.);
#473=EDGE_CURVE('',#733,#728,#605,.T.);
#474=EDGE_CURVE('',#734,#735,#606,.T.);
#475=EDGE_CURVE('',#735,#736,#607,.T.);
#476=EDGE_CURVE('',#736,#737,#608,.T.);
#477=EDGE_CURVE('',#737,#734,#609,.T.);
#478=EDGE_CURVE('',#738,#734,#610,.T.);
#479=EDGE_CURVE('',#737,#739,#611,.T.);
#480=EDGE_CURVE('',#739,#738,#612,.T.);
#481=EDGE_CURVE('',#740,#738,#613,.T.);
#482=EDGE_CURVE('',#739,#741,#614,.T.);
#483=EDGE_CURVE('',#741,#740,#615,.T.);
#484=EDGE_CURVE('',#735,#740,#616,.T.);
#485=EDGE_CURVE('',#741,#736,#617,.T.);
#486=EDGE_CURVE('',#742,#743,#618,.T.);
#487=EDGE_CURVE('',#744,#742,#619,.T.);
#488=EDGE_CURVE('',#745,#744,#620,.T.);
#489=EDGE_CURVE('',#743,#745,#621,.T.);
#490=EDGE_CURVE('',#746,#742,#622,.T.);
#491=EDGE_CURVE('',#747,#746,#623,.T.);
#492=EDGE_CURVE('',#744,#747,#624,.T.);
#493=EDGE_CURVE('',#748,#746,#625,.T.);
#494=EDGE_CURVE('',#749,#748,#626,.T.);
#495=EDGE_CURVE('',#747,#749,#627,.T.);
#496=EDGE_CURVE('',#745,#749,#628,.T.);
#497=EDGE_CURVE('',#750,#743,#629,.T.);
#498=EDGE_CURVE('',#751,#750,#630,.T.);
#499=EDGE_CURVE('',#752,#751,#631,.T.);
#500=EDGE_CURVE('',#753,#752,#632,.T.);
#501=EDGE_CURVE('',#754,#753,#633,.T.);
#502=EDGE_CURVE('',#755,#754,#634,.T.);
#503=EDGE_CURVE('',#756,#755,#635,.T.);
#504=EDGE_CURVE('',#757,#756,#636,.T.);
#505=EDGE_CURVE('',#748,#757,#637,.T.);
#506=EDGE_CURVE('',#758,#752,#638,.T.);
#507=EDGE_CURVE('',#759,#758,#639,.T.);
#508=EDGE_CURVE('',#753,#759,#640,.T.);
#509=EDGE_CURVE('',#760,#754,#641,.T.);
#510=EDGE_CURVE('',#761,#760,#642,.T.);
#511=EDGE_CURVE('',#755,#761,#643,.T.);
#512=EDGE_CURVE('',#760,#759,#644,.T.);
#513=EDGE_CURVE('',#761,#758,#645,.T.);
#514=EDGE_CURVE('',#751,#762,#646,.T.);
#515=EDGE_CURVE('',#762,#763,#647,.T.);
#516=EDGE_CURVE('',#763,#756,#648,.T.);
#517=EDGE_CURVE('',#763,#764,#649,.T.);
#518=EDGE_CURVE('',#764,#757,#650,.T.);
#519=EDGE_CURVE('',#765,#766,#651,.T.);
#520=EDGE_CURVE('',#767,#765,#652,.T.);
#521=EDGE_CURVE('',#768,#767,#653,.T.);
#522=EDGE_CURVE('',#766,#768,#654,.T.);
#523=EDGE_CURVE('',#769,#765,#655,.T.);
#524=EDGE_CURVE('',#770,#769,#656,.T.);
#525=EDGE_CURVE('',#767,#770,#657,.T.);
#526=EDGE_CURVE('',#771,#769,#658,.T.);
#527=EDGE_CURVE('',#772,#771,#659,.T.);
#528=EDGE_CURVE('',#770,#772,#660,.T.);
#529=EDGE_CURVE('',#766,#771,#661,.T.);
#530=EDGE_CURVE('',#772,#768,#662,.T.);
#531=EDGE_CURVE('',#773,#774,#663,.T.);
#532=EDGE_CURVE('',#775,#773,#664,.T.);
#533=EDGE_CURVE('',#776,#775,#665,.T.);
#534=EDGE_CURVE('',#774,#776,#666,.T.);
#535=EDGE_CURVE('',#777,#773,#667,.T.);
#536=EDGE_CURVE('',#778,#777,#668,.T.);
#537=EDGE_CURVE('',#775,#778,#669,.T.);
#538=EDGE_CURVE('',#779,#777,#670,.T.);
#539=EDGE_CURVE('',#780,#779,#671,.T.);
#540=EDGE_CURVE('',#778,#780,#672,.T.);
#541=EDGE_CURVE('',#774,#779,#673,.T.);
#542=EDGE_CURVE('',#780,#776,#674,.T.);
#543=EDGE_CURVE('',#781,#782,#675,.T.);
#544=EDGE_CURVE('',#783,#781,#676,.T.);
#545=EDGE_CURVE('',#784,#783,#677,.T.);
#546=EDGE_CURVE('',#782,#784,#678,.T.);
#547=EDGE_CURVE('',#785,#781,#679,.T.);
#548=EDGE_CURVE('',#786,#785,#680,.T.);
#549=EDGE_CURVE('',#783,#786,#681,.T.);
#550=EDGE_CURVE('',#787,#785,#682,.T.);
#551=EDGE_CURVE('',#788,#787,#683,.T.);
#552=EDGE_CURVE('',#786,#788,#684,.T.);
#553=EDGE_CURVE('',#782,#787,#685,.T.);
#554=EDGE_CURVE('',#788,#784,#686,.T.);
#555=EDGE_CURVE('',#789,#790,#687,.T.);
#556=EDGE_CURVE('',#791,#789,#688,.T.);
#557=EDGE_CURVE('',#792,#791,#689,.T.);
#558=EDGE_CURVE('',#790,#792,#690,.T.);
#559=EDGE_CURVE('',#793,#789,#691,.T.);
#560=EDGE_CURVE('',#794,#793,#692,.T.);
#561=EDGE_CURVE('',#791,#794,#693,.T.);
#562=EDGE_CURVE('',#795,#793,#694,.T.);
#563=EDGE_CURVE('',#796,#795,#695,.T.);
#564=EDGE_CURVE('',#794,#796,#696,.T.);
#565=EDGE_CURVE('',#790,#795,#697,.T.);
#566=EDGE_CURVE('',#796,#792,#698,.T.);
#567=EDGE_CURVE('',#797,#798,#699,.T.);
#568=EDGE_CURVE('',#799,#797,#700,.T.);
#569=EDGE_CURVE('',#800,#799,#701,.T.);
#570=EDGE_CURVE('',#798,#800,#702,.T.);
#571=EDGE_CURVE('',#801,#797,#703,.T.);
#572=EDGE_CURVE('',#802,#801,#704,.T.);
#573=EDGE_CURVE('',#799,#802,#705,.T.);
#574=EDGE_CURVE('',#803,#801,#706,.T.);
#575=EDGE_CURVE('',#804,#803,#707,.T.);
#576=EDGE_CURVE('',#802,#804,#708,.T.);
#577=EDGE_CURVE('',#798,#803,#709,.T.);
#578=EDGE_CURVE('',#804,#800,#710,.T.);
#579=EDGE_CURVE('',#805,#806,#711,.T.);
#580=EDGE_CURVE('',#807,#805,#712,.T.);
#581=EDGE_CURVE('',#808,#807,#713,.T.);
#582=EDGE_CURVE('',#806,#808,#714,.T.);
#583=EDGE_CURVE('',#809,#805,#715,.T.);
#584=EDGE_CURVE('',#810,#809,#716,.T.);
#585=EDGE_CURVE('',#807,#810,#717,.T.);
#586=EDGE_CURVE('',#811,#809,#718,.T.);
#587=EDGE_CURVE('',#812,#811,#719,.T.);
#588=EDGE_CURVE('',#810,#812,#720,.T.);
#589=EDGE_CURVE('',#806,#811,#721,.T.);
#590=EDGE_CURVE('',#812,#808,#722,.T.);
#591=EDGE_CURVE('',#764,#813,#723,.T.);
#592=EDGE_CURVE('',#813,#750,#724,.T.);
#593=EDGE_CURVE('',#813,#762,#725,.T.);
#594=B_SPLINE_CURVE_WITH_KNOTS('',1,(#1090,#1091),.UNSPECIFIED.,.F.,.F.,
(2,2),(0.,2.),.UNSPECIFIED.);
#595=B_SPLINE_CURVE_WITH_KNOTS('',1,(#1092,#1093),.UNSPECIFIED.,.F.,.F.,
(2,2),(0.,0.1),.UNSPECIFIED.);
#596=B_SPLINE_CURVE_WITH_KNOTS('',1,(#1094,#1095),.UNSPECIFIED.,.F.,.F.,
(2,2),(0.,2.),.UNSPECIFIED.);
#597=B_SPLINE_CURVE_WITH_KNOTS('',1,(#1096,#1097),.UNSPECIFIED.,.F.,.F.,
(2,2),(0.,0.1),.UNSPECIFIED.);
#598=B_SPLINE_CURVE_WITH_KNOTS('',1,(#1098,#1099),.UNSPECIFIED.,.F.,.F.,
(2,2),(0.,12.),.UNSPECIFIED.);
#599=B_SPLINE_CURVE_WITH_KNOTS('',1,(#1100,#1101),.UNSPECIFIED.,.F.,.F.,
(2,2),(0.,12.),.UNSPECIFIED.);
#600=B_SPLINE_CURVE_WITH_KNOTS('',1,(#1102,#1103),.UNSPECIFIED.,.F.,.F.,
(2,2),(0.,0.1),.UNSPECIFIED.);
#601=B_SPLINE_CURVE_WITH_KNOTS('',1,(#1104,#1105),.UNSPECIFIED.,.F.,.F.,
(2,2),(0.,2.),.UNSPECIFIED.);
#602=B_SPLINE_CURVE_WITH_KNOTS('',1,(#1106,#1107),.UNSPECIFIED.,.F.,.F.,
(2,2),(0.,2.),.UNSPECIFIED.);
#603=B_SPLINE_CURVE_WITH_KNOTS('',1,(#1108,#1109),.UNSPECIFIED.,.F.,.F.,
(2,2),(0.,0.1),.UNSPECIFIED.);
#604=B_SPLINE_CURVE_WITH_KNOTS('',1,(#1110,#1111),.UNSPECIFIED.,.F.,.F.,
(2,2),(0.,12.),.UNSPECIFIED.);
#605=B_SPLINE_CURVE_WITH_KNOTS('',1,(#1112,#1113),.UNSPECIFIED.,.F.,.F.,
(2,2),(0.,12.),.UNSPECIFIED.);
#606=B_SPLINE_CURVE_WITH_KNOTS('',1,(#1128,#1129),.UNSPECIFIED.,.F.,.F.,
(2,2),(0.,12.),.UNSPECIFIED.);
#607=B_SPLINE_CURVE_WITH_KNOTS('',1,(#1130,#1131),.UNSPECIFIED.,.F.,.F.,
(2,2),(0.,0.1),.UNSPECIFIED.);
#608=B_SPLINE_CURVE_WITH_KNOTS('',1,(#1132,#1133),.UNSPECIFIED.,.F.,.F.,
(2,2),(0.,12.),.UNSPECIFIED.);
#609=B_SPLINE_CURVE_WITH_KNOTS('',1,(#1134,#1135),.UNSPECIFIED.,.F.,.F.,
(2,2),(0.,0.1),.UNSPECIFIED.);
#610=B_SPLINE_CURVE_WITH_KNOTS('',1,(#1136,#1137),.UNSPECIFIED.,.F.,.F.,
(2,2),(0.,2.),.UNSPECIFIED.);
#611=B_SPLINE_CURVE_WITH_KNOTS('',1,(#1138,#1139),.UNSPECIFIED.,.F.,.F.,
(2,2),(0.,2.),.UNSPECIFIED.);
#612=B_SPLINE_CURVE_WITH_KNOTS('',1,(#1140,#1141),.UNSPECIFIED.,.F.,.F.,
(2,2),(0.,0.1),.UNSPECIFIED.);
#613=B_SPLINE_CURVE_WITH_KNOTS('',1,(#1142,#1143),.UNSPECIFIED.,.F.,.F.,
(2,2),(0.,12.),.UNSPECIFIED.);
#614=B_SPLINE_CURVE_WITH_KNOTS('',1,(#1144,#1145),.UNSPECIFIED.,.F.,.F.,
(2,2),(0.,12.),.UNSPECIFIED.);
#615=B_SPLINE_CURVE_WITH_KNOTS('',1,(#1146,#1147),.UNSPECIFIED.,.F.,.F.,
(2,2),(0.,0.1),.UNSPECIFIED.);
#616=B_SPLINE_CURVE_WITH_KNOTS('',1,(#1148,#1149),.UNSPECIFIED.,.F.,.F.,
(2,2),(0.,2.),.UNSPECIFIED.);
#617=B_SPLINE_CURVE_WITH_KNOTS('',1,(#1150,#1151),.UNSPECIFIED.,.F.,.F.,
(2,2),(0.,2.),.UNSPECIFIED.);
#618=B_SPLINE_CURVE_WITH_KNOTS('',1,(#1268,#1269),.UNSPECIFIED.,.F.,.F.,
(2,2),(-2.,0.),.UNSPECIFIED.);
#619=B_SPLINE_CURVE_WITH_KNOTS('',1,(#1270,#1271),.UNSPECIFIED.,.F.,.F.,
(2,2),(-0.1,0.),.UNSPECIFIED.);
#620=B_SPLINE_CURVE_WITH_KNOTS('',1,(#1272,#1273),.UNSPECIFIED.,.F.,.F.,
(2,2),(-2.,0.),.UNSPECIFIED.);
#621=B_SPLINE_CURVE_WITH_KNOTS('',1,(#1274,#1275),.UNSPECIFIED.,.F.,.F.,
(2,2),(-0.1,0.),.UNSPECIFIED.);
#622=B_SPLINE_CURVE_WITH_KNOTS('',1,(#1276,#1277),.UNSPECIFIED.,.F.,.F.,
(2,2),(-12.,0.),.UNSPECIFIED.);
#623=B_SPLINE_CURVE_WITH_KNOTS('',1,(#1278,#1279),.UNSPECIFIED.,.F.,.F.,
(2,2),(-0.1,0.),.UNSPECIFIED.);
#624=B_SPLINE_CURVE_WITH_KNOTS('',1,(#1280,#1281),.UNSPECIFIED.,.F.,.F.,
(2,2),(-12.,0.),.UNSPECIFIED.);
#625=B_SPLINE_CURVE_WITH_KNOTS('',1,(#1282,#1283),.UNSPECIFIED.,.F.,.F.,
(2,2),(-2.,0.),.UNSPECIFIED.);
#626=B_SPLINE_CURVE_WITH_KNOTS('',1,(#1284,#1285),.UNSPECIFIED.,.F.,.F.,
(2,2),(-0.1,0.),.UNSPECIFIED.);
#627=B_SPLINE_CURVE_WITH_KNOTS('',1,(#1286,#1287),.UNSPECIFIED.,.F.,.F.,
(2,2),(-2.,0.),.UNSPECIFIED.);
#628=B_SPLINE_CURVE_WITH_KNOTS('',1,(#1288,#1289),.UNSPECIFIED.,.F.,.F.,
(2,2),(-12.,0.),.UNSPECIFIED.);
#629=B_SPLINE_CURVE_WITH_KNOTS('',1,(#1290,#1291),.UNSPECIFIED.,.F.,.F.,
(2,2),(-5.5,0.),.UNSPECIFIED.);
#630=B_SPLINE_CURVE_WITH_KNOTS('',1,(#1292,#1293),.UNSPECIFIED.,.F.,.F.,
(2,2),(-25.,0.),.UNSPECIFIED.);
#631=B_SPLINE_CURVE_WITH_KNOTS('',1,(#1294,#1295),.UNSPECIFIED.,.F.,.F.,
(2,2),(-5.5,0.),.UNSPECIFIED.);
#632=B_SPLINE_CURVE_WITH_KNOTS('',1,(#1296,#1297),.UNSPECIFIED.,.F.,.F.,
(2,2),(-2.,0.),.UNSPECIFIED.);
#633=B_SPLINE_CURVE_WITH_KNOTS('',1,(#1298,#1299),.UNSPECIFIED.,.F.,.F.,
(2,2),(-12.,0.),.UNSPECIFIED.);
#634=B_SPLINE_CURVE_WITH_KNOTS('',1,(#1300,#1301),.UNSPECIFIED.,.F.,.F.,
(2,2),(-2.,0.),.UNSPECIFIED.);
#635=B_SPLINE_CURVE_WITH_KNOTS('',1,(#1302,#1303),.UNSPECIFIED.,.F.,.F.,
(2,2),(-5.5,0.),.UNSPECIFIED.);
#636=B_SPLINE_CURVE_WITH_KNOTS('',1,(#1304,#1305),.UNSPECIFIED.,.F.,.F.,
(2,2),(-25.,0.),.UNSPECIFIED.);
#637=B_SPLINE_CURVE_WITH_KNOTS('',1,(#1306,#1307),.UNSPECIFIED.,.F.,.F.,
(2,2),(-5.5,0.),.UNSPECIFIED.);
#638=B_SPLINE_CURVE_WITH_KNOTS('',1,(#1308,#1309),.UNSPECIFIED.,.F.,.F.,
(2,2),(-0.1,0.),.UNSPECIFIED.);
#639=B_SPLINE_CURVE_WITH_KNOTS('',1,(#1310,#1311),.UNSPECIFIED.,.F.,.F.,
(2,2),(-2.,0.),.UNSPECIFIED.);
#640=B_SPLINE_CURVE_WITH_KNOTS('',1,(#1312,#1313),.UNSPECIFIED.,.F.,.F.,
(2,2),(-0.1,0.),.UNSPECIFIED.);
#641=B_SPLINE_CURVE_WITH_KNOTS('',1,(#1314,#1315),.UNSPECIFIED.,.F.,.F.,
(2,2),(-0.1,0.),.UNSPECIFIED.);
#642=B_SPLINE_CURVE_WITH_KNOTS('',1,(#1316,#1317),.UNSPECIFIED.,.F.,.F.,
(2,2),(-2.,0.),.UNSPECIFIED.);
#643=B_SPLINE_CURVE_WITH_KNOTS('',1,(#1318,#1319),.UNSPECIFIED.,.F.,.F.,
(2,2),(-0.1,0.),.UNSPECIFIED.);
#644=B_SPLINE_CURVE_WITH_KNOTS('',1,(#1320,#1321),.UNSPECIFIED.,.F.,.F.,
(2,2),(-12.,0.),.UNSPECIFIED.);
#645=B_SPLINE_CURVE_WITH_KNOTS('',1,(#1322,#1323),.UNSPECIFIED.,.F.,.F.,
(2,2),(-12.,0.),.UNSPECIFIED.);
#646=B_SPLINE_CURVE_WITH_KNOTS('',1,(#1324,#1325),.UNSPECIFIED.,.F.,.F.,
(2,2),(0.,1.7),.UNSPECIFIED.);
#647=B_SPLINE_CURVE_WITH_KNOTS('',1,(#1326,#1327),.UNSPECIFIED.,.F.,.F.,
(2,2),(0.,23.),.UNSPECIFIED.);
#648=B_SPLINE_CURVE_WITH_KNOTS('',1,(#1328,#1329),.UNSPECIFIED.,.F.,.F.,
(2,2),(0.,1.7),.UNSPECIFIED.);
#649=B_SPLINE_CURVE_WITH_KNOTS('',1,(#1330,#1331),.UNSPECIFIED.,.F.,.F.,
(2,2),(0.,25.),.UNSPECIFIED.);
#650=B_SPLINE_CURVE_WITH_KNOTS('',1,(#1332,#1333),.UNSPECIFIED.,.F.,.F.,
(2,2),(0.,1.7),.UNSPECIFIED.);
#651=B_SPLINE_CURVE_WITH_KNOTS('',1,(#1334,#1335),.UNSPECIFIED.,.F.,.F.,
(2,2),(-7.78,0.),.UNSPECIFIED.);
#652=B_SPLINE_CURVE_WITH_KNOTS('',1,(#1336,#1337),.UNSPECIFIED.,.F.,.F.,
(2,2),(-0.1,0.),.UNSPECIFIED.);
#653=B_SPLINE_CURVE_WITH_KNOTS('',1,(#1338,#1339),.UNSPECIFIED.,.F.,.F.,
(2,2),(-7.78,0.),.UNSPECIFIED.);
#654=B_SPLINE_CURVE_WITH_KNOTS('',1,(#1340,#1341),.UNSPECIFIED.,.F.,.F.,
(2,2),(-0.1,0.),.UNSPECIFIED.);
#655=B_SPLINE_CURVE_WITH_KNOTS('',1,(#1342,#1343),.UNSPECIFIED.,.F.,.F.,
(2,2),(-10.8,0.),.UNSPECIFIED.);
#656=B_SPLINE_CURVE_WITH_KNOTS('',1,(#1344,#1345),.UNSPECIFIED.,.F.,.F.,
(2,2),(-0.1,0.),.UNSPECIFIED.);
#657=B_SPLINE_CURVE_WITH_KNOTS('',1,(#1346,#1347),.UNSPECIFIED.,.F.,.F.,
(2,2),(-10.8,0.),.UNSPECIFIED.);
#658=B_SPLINE_CURVE_WITH_KNOTS('',1,(#1348,#1349),.UNSPECIFIED.,.F.,.F.,
(2,2),(-7.78,0.),.UNSPECIFIED.);
#659=B_SPLINE_CURVE_WITH_KNOTS('',1,(#1350,#1351),.UNSPECIFIED.,.F.,.F.,
(2,2),(-0.1,0.),.UNSPECIFIED.);
#660=B_SPLINE_CURVE_WITH_KNOTS('',1,(#1352,#1353),.UNSPECIFIED.,.F.,.F.,
(2,2),(-7.78,0.),.UNSPECIFIED.);
#661=B_SPLINE_CURVE_WITH_KNOTS('',1,(#1354,#1355),.UNSPECIFIED.,.F.,.F.,
(2,2),(-10.8,0.),.UNSPECIFIED.);
#662=B_SPLINE_CURVE_WITH_KNOTS('',1,(#1356,#1357),.UNSPECIFIED.,.F.,.F.,
(2,2),(-10.8,0.),.UNSPECIFIED.);
#663=B_SPLINE_CURVE_WITH_KNOTS('',1,(#1358,#1359),.UNSPECIFIED.,.F.,.F.,
(2,2),(-10.8,0.),.UNSPECIFIED.);
#664=B_SPLINE_CURVE_WITH_KNOTS('',1,(#1360,#1361),.UNSPECIFIED.,.F.,.F.,
(2,2),(-0.1,0.),.UNSPECIFIED.);
#665=B_SPLINE_CURVE_WITH_KNOTS('',1,(#1362,#1363),.UNSPECIFIED.,.F.,.F.,
(2,2),(-10.8,0.),.UNSPECIFIED.);
#666=B_SPLINE_CURVE_WITH_KNOTS('',1,(#1364,#1365),.UNSPECIFIED.,.F.,.F.,
(2,2),(-0.1,0.),.UNSPECIFIED.);
#667=B_SPLINE_CURVE_WITH_KNOTS('',1,(#1366,#1367),.UNSPECIFIED.,.F.,.F.,
(2,2),(-7.78,0.),.UNSPECIFIED.);
#668=B_SPLINE_CURVE_WITH_KNOTS('',1,(#1368,#1369),.UNSPECIFIED.,.F.,.F.,
(2,2),(-0.1,0.),.UNSPECIFIED.);
#669=B_SPLINE_CURVE_WITH_KNOTS('',1,(#1370,#1371),.UNSPECIFIED.,.F.,.F.,
(2,2),(-7.78,0.),.UNSPECIFIED.);
#670=B_SPLINE_CURVE_WITH_KNOTS('',1,(#1372,#1373),.UNSPECIFIED.,.F.,.F.,
(2,2),(-10.8,0.),.UNSPECIFIED.);
#671=B_SPLINE_CURVE_WITH_KNOTS('',1,(#1374,#1375),.UNSPECIFIED.,.F.,.F.,
(2,2),(-0.1,0.),.UNSPECIFIED.);
#672=B_SPLINE_CURVE_WITH_KNOTS('',1,(#1376,#1377),.UNSPECIFIED.,.F.,.F.,
(2,2),(-10.8,0.),.UNSPECIFIED.);
#673=B_SPLINE_CURVE_WITH_KNOTS('',1,(#1378,#1379),.UNSPECIFIED.,.F.,.F.,
(2,2),(-7.78,0.),.UNSPECIFIED.);
#674=B_SPLINE_CURVE_WITH_KNOTS('',1,(#1380,#1381),.UNSPECIFIED.,.F.,.F.,
(2,2),(-7.78,0.),.UNSPECIFIED.);
#675=B_SPLINE_CURVE_WITH_KNOTS('',1,(#1382,#1383),.UNSPECIFIED.,.F.,.F.,
(2,2),(-7.78,0.),.UNSPECIFIED.);
#676=B_SPLINE_CURVE_WITH_KNOTS('',1,(#1384,#1385),.UNSPECIFIED.,.F.,.F.,
(2,2),(-0.1,0.),.UNSPECIFIED.);
#677=B_SPLINE_CURVE_WITH_KNOTS('',1,(#1386,#1387),.UNSPECIFIED.,.F.,.F.,
(2,2),(-7.78,0.),.UNSPECIFIED.);
#678=B_SPLINE_CURVE_WITH_KNOTS('',1,(#1388,#1389),.UNSPECIFIED.,.F.,.F.,
(2,2),(-0.1,0.),.UNSPECIFIED.);
#679=B_SPLINE_CURVE_WITH_KNOTS('',1,(#1390,#1391),.UNSPECIFIED.,.F.,.F.,
(2,2),(-10.8,0.),.UNSPECIFIED.);
#680=B_SPLINE_CURVE_WITH_KNOTS('',1,(#1392,#1393),.UNSPECIFIED.,.F.,.F.,
(2,2),(-0.1,0.),.UNSPECIFIED.);
#681=B_SPLINE_CURVE_WITH_KNOTS('',1,(#1394,#1395),.UNSPECIFIED.,.F.,.F.,
(2,2),(-10.8,0.),.UNSPECIFIED.);
#682=B_SPLINE_CURVE_WITH_KNOTS('',1,(#1396,#1397),.UNSPECIFIED.,.F.,.F.,
(2,2),(-7.78,0.),.UNSPECIFIED.);
#683=B_SPLINE_CURVE_WITH_KNOTS('',1,(#1398,#1399),.UNSPECIFIED.,.F.,.F.,
(2,2),(-0.1,0.),.UNSPECIFIED.);
#684=B_SPLINE_CURVE_WITH_KNOTS('',1,(#1400,#1401),.UNSPECIFIED.,.F.,.F.,
(2,2),(-7.78,0.),.UNSPECIFIED.);
#685=B_SPLINE_CURVE_WITH_KNOTS('',1,(#1402,#1403),.UNSPECIFIED.,.F.,.F.,
(2,2),(-10.8,0.),.UNSPECIFIED.);
#686=B_SPLINE_CURVE_WITH_KNOTS('',1,(#1404,#1405),.UNSPECIFIED.,.F.,.F.,
(2,2),(-10.8,0.),.UNSPECIFIED.);
#687=B_SPLINE_CURVE_WITH_KNOTS('',1,(#1406,#1407),.UNSPECIFIED.,.F.,.F.,
(2,2),(-10.8,0.),.UNSPECIFIED.);
#688=B_SPLINE_CURVE_WITH_KNOTS('',1,(#1408,#1409),.UNSPECIFIED.,.F.,.F.,
(2,2),(-0.1,0.),.UNSPECIFIED.);
#689=B_SPLINE_CURVE_WITH_KNOTS('',1,(#1410,#1411),.UNSPECIFIED.,.F.,.F.,
(2,2),(-10.8,0.),.UNSPECIFIED.);
#690=B_SPLINE_CURVE_WITH_KNOTS('',1,(#1412,#1413),.UNSPECIFIED.,.F.,.F.,
(2,2),(-0.1,0.),.UNSPECIFIED.);
#691=B_SPLINE_CURVE_WITH_KNOTS('',1,(#1414,#1415),.UNSPECIFIED.,.F.,.F.,
(2,2),(-7.78,0.),.UNSPECIFIED.);
#692=B_SPLINE_CURVE_WITH_KNOTS('',1,(#1416,#1417),.UNSPECIFIED.,.F.,.F.,
(2,2),(-0.1,0.),.UNSPECIFIED.);
#693=B_SPLINE_CURVE_WITH_KNOTS('',1,(#1418,#1419),.UNSPECIFIED.,.F.,.F.,
(2,2),(-7.78,0.),.UNSPECIFIED.);
#694=B_SPLINE_CURVE_WITH_KNOTS('',1,(#1420,#1421),.UNSPECIFIED.,.F.,.F.,
(2,2),(-10.8,0.),.UNSPECIFIED.);
#695=B_SPLINE_CURVE_WITH_KNOTS('',1,(#1422,#1423),.UNSPECIFIED.,.F.,.F.,
(2,2),(-0.1,0.),.UNSPECIFIED.);
#696=B_SPLINE_CURVE_WITH_KNOTS('',1,(#1424,#1425),.UNSPECIFIED.,.F.,.F.,
(2,2),(-10.8,0.),.UNSPECIFIED.);
#697=B_SPLINE_CURVE_WITH_KNOTS('',1,(#1426,#1427),.UNSPECIFIED.,.F.,.F.,
(2,2),(-7.78,0.),.UNSPECIFIED.);
#698=B_SPLINE_CURVE_WITH_KNOTS('',1,(#1428,#1429),.UNSPECIFIED.,.F.,.F.,
(2,2),(-7.78,0.),.UNSPECIFIED.);
#699=B_SPLINE_CURVE_WITH_KNOTS('',1,(#1430,#1431),.UNSPECIFIED.,.F.,.F.,
(2,2),(-7.78,0.),.UNSPECIFIED.);
#700=B_SPLINE_CURVE_WITH_KNOTS('',1,(#1432,#1433),.UNSPECIFIED.,.F.,.F.,
(2,2),(-0.1,0.),.UNSPECIFIED.);
#701=B_SPLINE_CURVE_WITH_KNOTS('',1,(#1434,#1435),.UNSPECIFIED.,.F.,.F.,
(2,2),(-7.78,0.),.UNSPECIFIED.);
#702=B_SPLINE_CURVE_WITH_KNOTS('',1,(#1436,#1437),.UNSPECIFIED.,.F.,.F.,
(2,2),(-0.1,0.),.UNSPECIFIED.);
#703=B_SPLINE_CURVE_WITH_KNOTS('',1,(#1438,#1439),.UNSPECIFIED.,.F.,.F.,
(2,2),(-10.8,0.),.UNSPECIFIED.);
#704=B_SPLINE_CURVE_WITH_KNOTS('',1,(#1440,#1441),.UNSPECIFIED.,.F.,.F.,
(2,2),(-0.1,0.),.UNSPECIFIED.);
#705=B_SPLINE_CURVE_WITH_KNOTS('',1,(#1442,#1443),.UNSPECIFIED.,.F.,.F.,
(2,2),(-10.8,0.),.UNSPECIFIED.);
#706=B_SPLINE_CURVE_WITH_KNOTS('',1,(#1444,#1445),.UNSPECIFIED.,.F.,.F.,
(2,2),(-7.78,0.),.UNSPECIFIED.);
#707=B_SPLINE_CURVE_WITH_KNOTS('',1,(#1446,#1447),.UNSPECIFIED.,.F.,.F.,
(2,2),(-0.1,0.),.UNSPECIFIED.);
#708=B_SPLINE_CURVE_WITH_KNOTS('',1,(#1448,#1449),.UNSPECIFIED.,.F.,.F.,
(2,2),(-7.78,0.),.UNSPECIFIED.);
#709=B_SPLINE_CURVE_WITH_KNOTS('',1,(#1450,#1451),.UNSPECIFIED.,.F.,.F.,
(2,2),(-10.8,0.),.UNSPECIFIED.);
#710=B_SPLINE_CURVE_WITH_KNOTS('',1,(#1452,#1453),.UNSPECIFIED.,.F.,.F.,
(2,2),(-10.8,0.),.UNSPECIFIED.);
#711=B_SPLINE_CURVE_WITH_KNOTS('',1,(#1454,#1455),.UNSPECIFIED.,.F.,.F.,
(2,2),(-10.8,0.),.UNSPECIFIED.);
#712=B_SPLINE_CURVE_WITH_KNOTS('',1,(#1456,#1457),.UNSPECIFIED.,.F.,.F.,
(2,2),(-0.1,0.),.UNSPECIFIED.);
#713=B_SPLINE_CURVE_WITH_KNOTS('',1,(#1458,#1459),.UNSPECIFIED.,.F.,.F.,
(2,2),(-10.8,0.),.UNSPECIFIED.);
#714=B_SPLINE_CURVE_WITH_KNOTS('',1,(#1460,#1461),.UNSPECIFIED.,.F.,.F.,
(2,2),(-0.1,0.),.UNSPECIFIED.);
#715=B_SPLINE_CURVE_WITH_KNOTS('',1,(#1462,#1463),.UNSPECIFIED.,.F.,.F.,
(2,2),(-7.78,0.),.UNSPECIFIED.);
#716=B_SPLINE_CURVE_WITH_KNOTS('',1,(#1464,#1465),.UNSPECIFIED.,.F.,.F.,
(2,2),(-0.1,0.),.UNSPECIFIED.);
#717=B_SPLINE_CURVE_WITH_KNOTS('',1,(#1466,#1467),.UNSPECIFIED.,.F.,.F.,
(2,2),(-7.78,0.),.UNSPECIFIED.);
#718=B_SPLINE_CURVE_WITH_KNOTS('',1,(#1468,#1469),.UNSPECIFIED.,.F.,.F.,
(2,2),(-10.8,0.),.UNSPECIFIED.);
#719=B_SPLINE_CURVE_WITH_KNOTS('',1,(#1470,#1471),.UNSPECIFIED.,.F.,.F.,
(2,2),(-0.1,0.),.UNSPECIFIED.);
#720=B_SPLINE_CURVE_WITH_KNOTS('',1,(#1472,#1473),.UNSPECIFIED.,.F.,.F.,
(2,2),(-10.8,0.),.UNSPECIFIED.);
#721=B_SPLINE_CURVE_WITH_KNOTS('',1,(#1474,#1475),.UNSPECIFIED.,.F.,.F.,
(2,2),(-7.78,0.),.UNSPECIFIED.);
#722=B_SPLINE_CURVE_WITH_KNOTS('',1,(#1476,#1477),.UNSPECIFIED.,.F.,.F.,
(2,2),(-7.78,0.),.UNSPECIFIED.);
#723=B_SPLINE_CURVE_WITH_KNOTS('',1,(#1478,#1479),.UNSPECIFIED.,.F.,.F.,
(2,2),(0.,23.),.UNSPECIFIED.);
#724=B_SPLINE_CURVE_WITH_KNOTS('',1,(#1480,#1481),.UNSPECIFIED.,.F.,.F.,
(2,2),(0.,1.7),.UNSPECIFIED.);
#725=B_SPLINE_CURVE_WITH_KNOTS('',1,(#1482,#1483),.UNSPECIFIED.,.F.,.F.,
(2,2),(0.,25.),.UNSPECIFIED.);
#726=VERTEX_POINT('',#1082);
#727=VERTEX_POINT('',#1083);
#728=VERTEX_POINT('',#1084);
#729=VERTEX_POINT('',#1085);
#730=VERTEX_POINT('',#1086);
#731=VERTEX_POINT('',#1087);
#732=VERTEX_POINT('',#1088);
#733=VERTEX_POINT('',#1089);
#734=VERTEX_POINT('',#1120);
#735=VERTEX_POINT('',#1121);
#736=VERTEX_POINT('',#1122);
#737=VERTEX_POINT('',#1123);
#738=VERTEX_POINT('',#1124);
#739=VERTEX_POINT('',#1125);
#740=VERTEX_POINT('',#1126);
#741=VERTEX_POINT('',#1127);
#742=VERTEX_POINT('',#1196);
#743=VERTEX_POINT('',#1197);
#744=VERTEX_POINT('',#1198);
#745=VERTEX_POINT('',#1199);
#746=VERTEX_POINT('',#1200);
#747=VERTEX_POINT('',#1201);
#748=VERTEX_POINT('',#1202);
#749=VERTEX_POINT('',#1203);
#750=VERTEX_POINT('',#1204);
#751=VERTEX_POINT('',#1205);
#752=VERTEX_POINT('',#1206);
#753=VERTEX_POINT('',#1207);
#754=VERTEX_POINT('',#1208);
#755=VERTEX_POINT('',#1209);
#756=VERTEX_POINT('',#1210);
#757=VERTEX_POINT('',#1211);
#758=VERTEX_POINT('',#1212);
#759=VERTEX_POINT('',#1213);
#760=VERTEX_POINT('',#1214);
#761=VERTEX_POINT('',#1215);
#762=VERTEX_POINT('',#1216);
#763=VERTEX_POINT('',#1217);
#764=VERTEX_POINT('',#1218);
#765=VERTEX_POINT('',#1219);
#766=VERTEX_POINT('',#1220);
#767=VERTEX_POINT('',#1221);
#768=VERTEX_POINT('',#1222);
#769=VERTEX_POINT('',#1223);
#770=VERTEX_POINT('',#1224);
#771=VERTEX_POINT('',#1225);
#772=VERTEX_POINT('',#1226);
#773=VERTEX_POINT('',#1227);
#774=VERTEX_POINT('',#1228);
#775=VERTEX_POINT('',#1229);
#776=VERTEX_POINT('',#1230);
#777=VERTEX_POINT('',#1231);
#778=VERTEX_POINT('',#1232);
#779=VERTEX_POINT('',#1233);
#780=VERTEX_POINT('',#1234);
#781=VERTEX_POINT('',#1235);
#782=VERTEX_POINT('',#1236);
#783=VERTEX_POINT('',#1237);
#784=VERTEX_POINT('',#1238);
#785=VERTEX_POINT('',#1239);
#786=VERTEX_POINT('',#1240);
#787=VERTEX_POINT('',#1241);
#788=VERTEX_POINT('',#1242);
#789=VERTEX_POINT('',#1243);
#790=VERTEX_POINT('',#1244);
#791=VERTEX_POINT('',#1245);
#792=VERTEX_POINT('',#1246);
#793=VERTEX_POINT('',#1247);
#794=VERTEX_POINT('',#1248);
#795=VERTEX_POINT('',#1249);
#796=VERTEX_POINT('',#1250);
#797=VERTEX_POINT('',#1251);
#798=VERTEX_POINT('',#1252);
#799=VERTEX_POINT('',#1253);
#800=VERTEX_POINT('',#1254);
#801=VERTEX_POINT('',#1255);
#802=VERTEX_POINT('',#1256);
#803=VERTEX_POINT('',#1257);
#804=VERTEX_POINT('',#1258);
#805=VERTEX_POINT('',#1259);
#806=VERTEX_POINT('',#1260);
#807=VERTEX_POINT('',#1261);
#808=VERTEX_POINT('',#1262);
#809=VERTEX_POINT('',#1263);
#810=VERTEX_POINT('',#1264);
#811=VERTEX_POINT('',#1265);
#812=VERTEX_POINT('',#1266);
#813=VERTEX_POINT('',#1267);
#814=PLANE('',#958);
#815=PLANE('',#959);
#816=PLANE('',#960);
#817=PLANE('',#961);
#818=PLANE('',#962);
#819=PLANE('',#963);
#820=PLANE('',#964);
#821=PLANE('',#965);
#822=PLANE('',#966);
#823=PLANE('',#967);
#824=PLANE('',#968);
#825=PLANE('',#969);
#826=PLANE('',#970);
#827=PLANE('',#971);
#828=PLANE('',#972);
#829=PLANE('',#973);
#830=PLANE('',#974);
#831=PLANE('',#975);
#832=PLANE('',#976);
#833=PLANE('',#977);
#834=PLANE('',#978);
#835=PLANE('',#979);
#836=PLANE('',#980);
#837=PLANE('',#981);
#838=PLANE('',#982);
#839=PLANE('',#983);
#840=PLANE('',#984);
#841=PLANE('',#985);
#842=PLANE('',#986);
#843=PLANE('',#987);
#844=PLANE('',#988);
#845=PLANE('',#989);
#846=PLANE('',#990);
#847=PLANE('',#991);
#848=PLANE('',#992);
#849=PLANE('',#993);
#850=PLANE('',#994);
#851=PLANE('',#995);
#852=PLANE('',#996);
#853=PLANE('',#997);
#854=PLANE('',#998);
#855=PLANE('',#999);
#856=PLANE('',#1000);
#857=PLANE('',#1001);
#858=PLANE('',#1002);
#859=PLANE('',#1003);
#860=PLANE('',#1004);
#861=PLANE('',#1005);
#862=PLANE('',#1006);
#863=PLANE('',#1007);
#864=PLANE('',#1008);
#865=PLANE('',#1009);
#866=PLANE('',#1010);
#867=PLANE('',#1011);
#868=PLANE('',#1012);
#869=PLANE('',#1013);
#870=SHAPE_DEFINITION_REPRESENTATION(#871,#956);
#871=PRODUCT_DEFINITION_SHAPE($,$,#873);
#872=PRODUCT_DEFINITION_CONTEXT('3D Mechanical Parts',#945,'design');
#873=PRODUCT_DEFINITION('A','First version',#915,#872);
#874=DATE_TIME_ROLE('classification_date');
#875=DATE_TIME_ROLE('creation_date');
#876=APPLIED_DATE_AND_TIME_ASSIGNMENT(#900,#874,(#879));
#877=APPLIED_DATE_AND_TIME_ASSIGNMENT(#902,#875,(#873));
#878=SECURITY_CLASSIFICATION_LEVEL('unclassified');
#879=SECURITY_CLASSIFICATION('A','Security for version',#878);
#880=APPLIED_SECURITY_CLASSIFICATION_ASSIGNMENT(#879,(#915));
#881=APPROVAL_ROLE('Version approval');
#882=APPROVAL_ROLE('Version Security approval');
#883=APPROVAL_ROLE('Definition approval');
#884=APPROVAL_PERSON_ORGANIZATION(#933,#909,#881);
#885=APPROVAL_PERSON_ORGANIZATION(#934,#910,#882);
#886=APPROVAL_PERSON_ORGANIZATION(#937,#911,#883);
#887=COORDINATED_UNIVERSAL_TIME_OFFSET(5,0,.BEHIND.);
#888=LOCAL_TIME(0,0,0.,#887);
#889=LOCAL_TIME(0,0,0.,#887);
#890=LOCAL_TIME(0,0,0.,#887);
#891=LOCAL_TIME(0,0,0.,#887);
#892=LOCAL_TIME(0,0,0.,#887);
#893=CALENDAR_DATE(1999,1,1);
#894=CALENDAR_DATE(1999,1,1);
#895=CALENDAR_DATE(1999,1,1);
#896=CALENDAR_DATE(1999,1,1);
#897=CALENDAR_DATE(1999,1,1);
#898=DATE_AND_TIME(#893,#888);
#899=DATE_AND_TIME(#894,#889);
#900=DATE_AND_TIME(#895,#890);
#901=DATE_AND_TIME(#896,#891);
#902=DATE_AND_TIME(#897,#892);
#903=APPROVAL_DATE_TIME(#898,#909);
#904=APPROVAL_DATE_TIME(#899,#910);
#905=APPROVAL_DATE_TIME(#901,#911);
#906=APPROVAL_STATUS('not_yet_approved');
#907=APPROVAL_STATUS('not_yet_approved');
#908=APPROVAL_STATUS('approved');
#909=APPROVAL(#906,'Version approval');
#910=APPROVAL(#907,'Version Security approval');
#911=APPROVAL(#908,'Definition approval');
#912=APPLIED_APPROVAL_ASSIGNMENT(#909,(#915));
#913=APPLIED_APPROVAL_ASSIGNMENT(#910,(#879));
#914=APPLIED_APPROVAL_ASSIGNMENT(#911,(#873));
#915=PRODUCT_DEFINITION_FORMATION_WITH_SPECIFIED_SOURCE('A',
'First version',#947,.MADE.);
#916=PERSON_AND_ORGANIZATION_ROLE('design_owner');
#917=PERSON_AND_ORGANIZATION_ROLE('creator');
#918=PERSON_AND_ORGANIZATION_ROLE('design_supplier');
#919=PERSON_AND_ORGANIZATION_ROLE('classification_officer');
#920=PERSON_AND_ORGANIZATION_ROLE('creator');
#921=ORGANIZATION('STI','lab','lab');
#922=ORGANIZATION('STI','unknown','unknown');
#923=ORGANIZATION('STI','unknown','unknown');
#924=ORGANIZATION('STI','unknown','unknown');
#925=ORGANIZATION('STI','unknown','unknown');
#926=ORGANIZATION('STI','unknown','unknown');
#927=ORGANIZATION('STI','unknown','unknown');
#928=PERSON('1','Box','vc60',$,$,$);
#929=PERSON('2','last','first',$,$,$);
#930=PERSON('3','President','Mr.',$,$,$);
#931=PERSON_AND_ORGANIZATION(#928,#921);
#932=PERSON_AND_ORGANIZATION(#929,#922);
#933=PERSON_AND_ORGANIZATION(#930,#923);
#934=PERSON_AND_ORGANIZATION(#930,#924);
#935=PERSON_AND_ORGANIZATION(#930,#925);
#936=PERSON_AND_ORGANIZATION(#929,#926);
#937=PERSON_AND_ORGANIZATION(#930,#927);
#938=APPLIED_PERSON_AND_ORGANIZATION_ASSIGNMENT(#931,#916,(#947));
#939=APPLIED_PERSON_AND_ORGANIZATION_ASSIGNMENT(#932,#917,(#915));
#940=APPLIED_PERSON_AND_ORGANIZATION_ASSIGNMENT(#932,#918,(#915));
#941=APPLIED_PERSON_AND_ORGANIZATION_ASSIGNMENT(#935,#919,(#879));
#942=APPLIED_PERSON_AND_ORGANIZATION_ASSIGNMENT(#936,#920,(#873));
#943=PRODUCT_RELATED_PRODUCT_CATEGORY('detail','detail',(#947));
#944=APPLICATION_PROTOCOL_DEFINITION('International Standard',
'config_control_design',1994,#945);
#945=APPLICATION_CONTEXT(
'configuration controlled 3d designs of mechanical parts and assemblie
s');
#946=PRODUCT_CONTEXT('3D Mechanical Parts',#945,'mechanical');
#947=PRODUCT('Document','Document','',(#946));
#948=(
LENGTH_UNIT()
NAMED_UNIT(*)
SI_UNIT(.MILLI.,.METRE.)
);
#949=(
NAMED_UNIT(*)
PLANE_ANGLE_UNIT()
SI_UNIT($,.RADIAN.)
);
#950=DIMENSIONAL_EXPONENTS(0.,0.,0.,0.,0.,0.,0.);
#951=PLANE_ANGLE_MEASURE_WITH_UNIT(PLANE_ANGLE_MEASURE(0.01745329252),#949);
#952=(
CONVERSION_BASED_UNIT('DEGREES',#951)
NAMED_UNIT(#950)
PLANE_ANGLE_UNIT()
);
#953=(
NAMED_UNIT(*)
SI_UNIT($,.STERADIAN.)
SOLID_ANGLE_UNIT()
);
#954=UNCERTAINTY_MEASURE_WITH_UNIT(LENGTH_MEASURE(0.01),#948,
'DISTANCE_ACCURACY_VALUE',
'Maximum model space distance between geometric entities at asserted c
onnectivities');
#955=(
GEOMETRIC_REPRESENTATION_CONTEXT(3)
GLOBAL_UNCERTAINTY_ASSIGNED_CONTEXT((#954))
GLOBAL_UNIT_ASSIGNED_CONTEXT((#953,#952,#948))
REPRESENTATION_CONTEXT('ID1','3D')
);
#956=SHAPE_REPRESENTATION('Document',(#957,#1014),#955);
#957=AXIS2_PLACEMENT_3D($,#1075,#1015,#1016);
#958=AXIS2_PLACEMENT_3D('',#1076,#1017,$);
#959=AXIS2_PLACEMENT_3D('',#1077,#1018,$);
#960=AXIS2_PLACEMENT_3D('',#1078,#1019,$);
#961=AXIS2_PLACEMENT_3D('',#1079,#1020,$);
#962=AXIS2_PLACEMENT_3D('',#1080,#1021,$);
#963=AXIS2_PLACEMENT_3D('',#1081,#1022,$);
#964=AXIS2_PLACEMENT_3D('',#1114,#1023,$);
#965=AXIS2_PLACEMENT_3D('',#1115,#1024,$);
#966=AXIS2_PLACEMENT_3D('',#1116,#1025,$);
#967=AXIS2_PLACEMENT_3D('',#1117,#1026,$);
#968=AXIS2_PLACEMENT_3D('',#1118,#1027,$);
#969=AXIS2_PLACEMENT_3D('',#1119,#1028,$);
#970=AXIS2_PLACEMENT_3D('',#1152,#1029,$);
#971=AXIS2_PLACEMENT_3D('',#1153,#1030,$);
#972=AXIS2_PLACEMENT_3D('',#1154,#1031,$);
#973=AXIS2_PLACEMENT_3D('',#1155,#1032,$);
#974=AXIS2_PLACEMENT_3D('',#1156,#1033,$);
#975=AXIS2_PLACEMENT_3D('',#1157,#1034,$);
#976=AXIS2_PLACEMENT_3D('',#1158,#1035,$);
#977=AXIS2_PLACEMENT_3D('',#1159,#1036,$);
#978=AXIS2_PLACEMENT_3D('',#1160,#1037,$);
#979=AXIS2_PLACEMENT_3D('',#1161,#1038,$);
#980=AXIS2_PLACEMENT_3D('',#1162,#1039,$);
#981=AXIS2_PLACEMENT_3D('',#1163,#1040,$);
#982=AXIS2_PLACEMENT_3D('',#1164,#1041,$);
#983=AXIS2_PLACEMENT_3D('',#1165,#1042,$);
#984=AXIS2_PLACEMENT_3D('',#1166,#1043,$);
#985=AXIS2_PLACEMENT_3D('',#1167,#1044,$);
#986=AXIS2_PLACEMENT_3D('',#1168,#1045,$);
#987=AXIS2_PLACEMENT_3D('',#1169,#1046,$);
#988=AXIS2_PLACEMENT_3D('',#1170,#1047,$);
#989=AXIS2_PLACEMENT_3D('',#1171,#1048,$);
#990=AXIS2_PLACEMENT_3D('',#1172,#1049,$);
#991=AXIS2_PLACEMENT_3D('',#1173,#1050,$);
#992=AXIS2_PLACEMENT_3D('',#1174,#1051,$);
#993=AXIS2_PLACEMENT_3D('',#1175,#1052,$);
#994=AXIS2_PLACEMENT_3D('',#1176,#1053,$);
#995=AXIS2_PLACEMENT_3D('',#1177,#1054,$);
#996=AXIS2_PLACEMENT_3D('',#1178,#1055,$);
#997=AXIS2_PLACEMENT_3D('',#1179,#1056,$);
#998=AXIS2_PLACEMENT_3D('',#1180,#1057,$);
#999=AXIS2_PLACEMENT_3D('',#1181,#1058,$);
#1000=AXIS2_PLACEMENT_3D('',#1182,#1059,$);
#1001=AXIS2_PLACEMENT_3D('',#1183,#1060,$);
#1002=AXIS2_PLACEMENT_3D('',#1184,#1061,$);
#1003=AXIS2_PLACEMENT_3D('',#1185,#1062,$);
#1004=AXIS2_PLACEMENT_3D('',#1186,#1063,$);
#1005=AXIS2_PLACEMENT_3D('',#1187,#1064,$);
#1006=AXIS2_PLACEMENT_3D('',#1188,#1065,$);
#1007=AXIS2_PLACEMENT_3D('',#1189,#1066,$);
#1008=AXIS2_PLACEMENT_3D('',#1190,#1067,$);
#1009=AXIS2_PLACEMENT_3D('',#1191,#1068,$);
#1010=AXIS2_PLACEMENT_3D('',#1192,#1069,$);
#1011=AXIS2_PLACEMENT_3D('',#1193,#1070,$);
#1012=AXIS2_PLACEMENT_3D('',#1194,#1071,$);
#1013=AXIS2_PLACEMENT_3D('',#1195,#1072,$);
#1014=AXIS2_PLACEMENT_3D($,#1484,#1073,#1074);
#1015=DIRECTION('',(0.,0.,1.));
#1016=DIRECTION('',(1.,0.,0.));
#1017=DIRECTION('',(-1.,0.,0.));
#1018=DIRECTION('',(0.,1.,0.));
#1019=DIRECTION('',(1.,0.,0.));
#1020=DIRECTION('',(0.,-1.,0.));
#1021=DIRECTION('',(0.,0.,-1.));
#1022=DIRECTION('',(0.,0.,1.));
#1023=DIRECTION('',(0.,-1.,0.));
#1024=DIRECTION('',(-1.,0.,0.));
#1025=DIRECTION('',(0.,1.,0.));
#1026=DIRECTION('',(1.,0.,0.));
#1027=DIRECTION('',(0.,0.,-1.));
#1028=DIRECTION('',(0.,0.,1.));
#1029=DIRECTION('',(1.,0.,0.));
#1030=DIRECTION('',(0.,-1.,0.));
#1031=DIRECTION('',(-1.,0.,0.));
#1032=DIRECTION('',(0.,0.,-1.));
#1033=DIRECTION('',(0.,0.,-1.));
#1034=DIRECTION('',(1.,0.,0.));
#1035=DIRECTION('',(-1.,0.,0.));
#1036=DIRECTION('',(0.,1.,0.));
#1037=DIRECTION('',(0.,0.,-1.));
#1038=DIRECTION('',(0.,1.,0.));
#1039=DIRECTION('',(1.,0.,0.));
#1040=DIRECTION('',(-1.,0.,0.));
#1041=DIRECTION('',(0.,-1.,0.));
#1042=DIRECTION('',(1.,0.,0.));
#1043=DIRECTION('',(0.,1.,0.));
#1044=DIRECTION('',(0.,0.,1.));
#1045=DIRECTION('',(0.,-1.,0.));
#1046=DIRECTION('',(1.,0.,0.));
#1047=DIRECTION('',(0.,1.,0.));
#1048=DIRECTION('',(-1.,0.,0.));
#1049=DIRECTION('',(0.,0.,1.));
#1050=DIRECTION('',(-1.,0.,0.));
#1051=DIRECTION('',(0.,-1.,0.));
#1052=DIRECTION('',(1.,0.,0.));
#1053=DIRECTION('',(0.,1.,0.));
#1054=DIRECTION('',(0.,0.,1.));
#1055=DIRECTION('',(0.,-1.,0.));
#1056=DIRECTION('',(1.,0.,0.));
#1057=DIRECTION('',(0.,1.,0.));
#1058=DIRECTION('',(-1.,0.,0.));
#1059=DIRECTION('',(0.,0.,1.));
#1060=DIRECTION('',(-1.,0.,0.));
#1061=DIRECTION('',(0.,-1.,0.));
#1062=DIRECTION('',(1.,0.,0.));
#1063=DIRECTION('',(0.,1.,0.));
#1064=DIRECTION('',(0.,0.,1.));
#1065=DIRECTION('',(0.,-1.,0.));
#1066=DIRECTION('',(1.,0.,0.));
#1067=DIRECTION('',(0.,1.,0.));
#1068=DIRECTION('',(-1.,0.,0.));
#1069=DIRECTION('',(0.,0.,1.));
#1070=DIRECTION('',(0.,-1.,0.));
#1071=DIRECTION('',(-1.,0.,0.));
#1072=DIRECTION('',(0.,0.,1.));
#1073=DIRECTION('',(0.,0.,1.));
#1074=DIRECTION('',(1.,0.,0.));
#1075=CARTESIAN_POINT('',(0.,0.,0.));
#1076=CARTESIAN_POINT('',(-6.,12.82,-0.63));
#1077=CARTESIAN_POINT('',(7.32,12.5,-0.63));
#1078=CARTESIAN_POINT('',(6.,10.18,-0.63));
#1079=CARTESIAN_POINT('',(-7.32,10.5,-0.63));
#1080=CARTESIAN_POINT('',(-7.32,12.82,0.1));
#1081=CARTESIAN_POINT('',(-7.32,10.18,0.2));
#1082=CARTESIAN_POINT('',(-6.,12.5,0.1));
#1083=CARTESIAN_POINT('',(-6.,10.5,0.1));
#1084=CARTESIAN_POINT('',(-6.,10.5,0.2));
#1085=CARTESIAN_POINT('',(-6.,12.5,0.2));
#1086=CARTESIAN_POINT('',(6.,12.5,0.1));
#1087=CARTESIAN_POINT('',(6.,12.5,0.2));
#1088=CARTESIAN_POINT('',(6.,10.5,0.1));
#1089=CARTESIAN_POINT('',(6.,10.5,0.2));
#1090=CARTESIAN_POINT('',(-6.,12.5,0.1));
#1091=CARTESIAN_POINT('',(-6.,10.5,0.1));
#1092=CARTESIAN_POINT('',(-6.,10.5,0.1));
#1093=CARTESIAN_POINT('',(-6.,10.5,0.2));
#1094=CARTESIAN_POINT('',(-6.,10.5,0.2));
#1095=CARTESIAN_POINT('',(-6.,12.5,0.2));
#1096=CARTESIAN_POINT('',(-6.,12.5,0.2));
#1097=CARTESIAN_POINT('',(-6.,12.5,0.1));
#1098=CARTESIAN_POINT('',(6.,12.5,0.1));
#1099=CARTESIAN_POINT('',(-6.,12.5,0.1));
#1100=CARTESIAN_POINT('',(-6.,12.5,0.2));
#1101=CARTESIAN_POINT('',(6.,12.5,0.2));
#1102=CARTESIAN_POINT('',(6.,12.5,0.2));
#1103=CARTESIAN_POINT('',(6.,12.5,0.1));
#1104=CARTESIAN_POINT('',(6.,10.5,0.1));
#1105=CARTESIAN_POINT('',(6.,12.5,0.1));
#1106=CARTESIAN_POINT('',(6.,12.5,0.2));
#1107=CARTESIAN_POINT('',(6.,10.5,0.2));
#1108=CARTESIAN_POINT('',(6.,10.5,0.2));
#1109=CARTESIAN_POINT('',(6.,10.5,0.1));
#1110=CARTESIAN_POINT('',(-6.,10.5,0.1));
#1111=CARTESIAN_POINT('',(6.,10.5,0.1));
#1112=CARTESIAN_POINT('',(6.,10.5,0.2));
#1113=CARTESIAN_POINT('',(-6.,10.5,0.2));
#1114=CARTESIAN_POINT('',(-7.32,-12.5,-0.63));
#1115=CARTESIAN_POINT('',(-6.,-10.18,-0.63));
#1116=CARTESIAN_POINT('',(7.32,-10.5,-0.63));
#1117=CARTESIAN_POINT('',(6.,-12.82,-0.63));
#1118=CARTESIAN_POINT('',(-7.32,-10.18,0.1));
#1119=CARTESIAN_POINT('',(-7.32,-12.82,0.2));
#1120=CARTESIAN_POINT('',(-6.,-12.5,0.1));
#1121=CARTESIAN_POINT('',(6.,-12.5,0.1));
#1122=CARTESIAN_POINT('',(6.,-12.5,0.2));
#1123=CARTESIAN_POINT('',(-6.,-12.5,0.2));
#1124=CARTESIAN_POINT('',(-6.,-10.5,0.1));
#1125=CARTESIAN_POINT('',(-6.,-10.5,0.2));
#1126=CARTESIAN_POINT('',(6.,-10.5,0.1));
#1127=CARTESIAN_POINT('',(6.,-10.5,0.2));
#1128=CARTESIAN_POINT('',(-6.,-12.5,0.1));
#1129=CARTESIAN_POINT('',(6.,-12.5,0.1));
#1130=CARTESIAN_POINT('',(6.,-12.5,0.1));
#1131=CARTESIAN_POINT('',(6.,-12.5,0.2));
#1132=CARTESIAN_POINT('',(6.,-12.5,0.2));
#1133=CARTESIAN_POINT('',(-6.,-12.5,0.2));
#1134=CARTESIAN_POINT('',(-6.,-12.5,0.2));
#1135=CARTESIAN_POINT('',(-6.,-12.5,0.1));
#1136=CARTESIAN_POINT('',(-6.,-10.5,0.1));
#1137=CARTESIAN_POINT('',(-6.,-12.5,0.1));
#1138=CARTESIAN_POINT('',(-6.,-12.5,0.2));
#1139=CARTESIAN_POINT('',(-6.,-10.5,0.2));
#1140=CARTESIAN_POINT('',(-6.,-10.5,0.2));
#1141=CARTESIAN_POINT('',(-6.,-10.5,0.1));
#1142=CARTESIAN_POINT('',(6.,-10.5,0.1));
#1143=CARTESIAN_POINT('',(-6.,-10.5,0.1));
#1144=CARTESIAN_POINT('',(-6.,-10.5,0.2));
#1145=CARTESIAN_POINT('',(6.,-10.5,0.2));
#1146=CARTESIAN_POINT('',(6.,-10.5,0.2));
#1147=CARTESIAN_POINT('',(6.,-10.5,0.1));
#1148=CARTESIAN_POINT('',(6.,-12.5,0.1));
#1149=CARTESIAN_POINT('',(6.,-10.5,0.1));
#1150=CARTESIAN_POINT('',(6.,-10.5,0.2));
#1151=CARTESIAN_POINT('',(6.,-12.5,0.2));
#1152=CARTESIAN_POINT('',(-6.,-10.18,-0.63));
#1153=CARTESIAN_POINT('',(7.32,-10.5,-0.63));
#1154=CARTESIAN_POINT('',(6.,-12.82,-0.63));
#1155=CARTESIAN_POINT('',(-7.32,-12.82,0.2));
#1156=CARTESIAN_POINT('',(-13.92,-15.12,0.1));
#1157=CARTESIAN_POINT('',(-6.,12.82,-0.63));
#1158=CARTESIAN_POINT('',(6.,10.18,-0.63));
#1159=CARTESIAN_POINT('',(-7.32,10.5,-0.63));
#1160=CARTESIAN_POINT('',(-7.32,10.18,0.2));
#1161=CARTESIAN_POINT('',(13.92,12.5,-0.19));
#1162=CARTESIAN_POINT('',(11.5,-15.12,-0.19));
#1163=CARTESIAN_POINT('',(-0.15,4.788,2.53));
#1164=CARTESIAN_POINT('',(-12.15,3.89,2.53));
#1165=CARTESIAN_POINT('',(-10.95,-4.788,2.53));
#1166=CARTESIAN_POINT('',(1.05,-3.89,2.53));
#1167=CARTESIAN_POINT('',(1.05,-4.788,1.7));
#1168=CARTESIAN_POINT('',(-12.15,-4.19,2.53));
#1169=CARTESIAN_POINT('',(-10.95,-12.868,2.53));
#1170=CARTESIAN_POINT('',(1.05,-11.97,2.53));
#1171=CARTESIAN_POINT('',(-0.15,-3.292,2.53));
#1172=CARTESIAN_POINT('',(1.05,-12.868,1.7));
#1173=CARTESIAN_POINT('',(-0.15,12.868,2.53));
#1174=CARTESIAN_POINT('',(-12.15,11.97,2.53));
#1175=CARTESIAN_POINT('',(-10.95,3.292,2.53));
#1176=CARTESIAN_POINT('',(1.05,4.19,2.53));
#1177=CARTESIAN_POINT('',(1.05,3.292,1.7));
#1178=CARTESIAN_POINT('',(-1.05,3.89,2.53));
#1179=CARTESIAN_POINT('',(0.15,-4.788,2.53));
#1180=CARTESIAN_POINT('',(12.15,-3.89,2.53));
#1181=CARTESIAN_POINT('',(10.95,4.788,2.53));
#1182=CARTESIAN_POINT('',(12.15,-4.788,1.7));
#1183=CARTESIAN_POINT('',(10.95,-3.292,2.53));
#1184=CARTESIAN_POINT('',(-1.05,-4.19,2.53));
#1185=CARTESIAN_POINT('',(0.15,-12.868,2.53));
#1186=CARTESIAN_POINT('',(12.15,-11.97,2.53));
#1187=CARTESIAN_POINT('',(12.15,-12.868,1.7));
#1188=CARTESIAN_POINT('',(-1.05,11.97,2.53));
#1189=CARTESIAN_POINT('',(0.15,3.292,2.53));
#1190=CARTESIAN_POINT('',(12.15,4.19,2.53));
#1191=CARTESIAN_POINT('',(10.95,12.868,2.53));
#1192=CARTESIAN_POINT('',(12.15,3.292,1.7));
#1193=CARTESIAN_POINT('',(-13.92,-12.5,-0.19));
#1194=CARTESIAN_POINT('',(-11.5,15.12,-0.19));
#1195=CARTESIAN_POINT('',(-13.92,-15.12,1.8));
#1196=CARTESIAN_POINT('',(-6.,-10.5,0.1));
#1197=CARTESIAN_POINT('',(-6.,-12.5,0.1));
#1198=CARTESIAN_POINT('',(-6.,-10.5,0.2));
#1199=CARTESIAN_POINT('',(-6.,-12.5,0.2));
#1200=CARTESIAN_POINT('',(6.,-10.5,0.1));
#1201=CARTESIAN_POINT('',(6.,-10.5,0.2));
#1202=CARTESIAN_POINT('',(6.,-12.5,0.1));
#1203=CARTESIAN_POINT('',(6.,-12.5,0.2));
#1204=CARTESIAN_POINT('',(-11.5,-12.5,0.1));
#1205=CARTESIAN_POINT('',(-11.5,12.5,0.1));
#1206=CARTESIAN_POINT('',(-6.,12.5,0.1));
#1207=CARTESIAN_POINT('',(-6.,10.5,0.1));
#1208=CARTESIAN_POINT('',(6.,10.5,0.1));
#1209=CARTESIAN_POINT('',(6.,12.5,0.1));
#1210=CARTESIAN_POINT('',(11.5,12.5,0.1));
#1211=CARTESIAN_POINT('',(11.5,-12.5,0.1));
#1212=CARTESIAN_POINT('',(-6.,12.5,0.2));
#1213=CARTESIAN_POINT('',(-6.,10.5,0.2));
#1214=CARTESIAN_POINT('',(6.,10.5,0.2));
#1215=CARTESIAN_POINT('',(6.,12.5,0.2));
#1216=CARTESIAN_POINT('',(-11.5,12.5,1.8));
#1217=CARTESIAN_POINT('',(11.5,12.5,1.8));
#1218=CARTESIAN_POINT('',(11.5,-12.5,1.8));
#1219=CARTESIAN_POINT('',(-0.149999999999999,3.89,1.8));
#1220=CARTESIAN_POINT('',(-0.149999999999999,-3.89,1.8));
#1221=CARTESIAN_POINT('',(-0.149999999999999,3.89,1.7));
#1222=CARTESIAN_POINT('',(-0.149999999999999,-3.89,1.7));
#1223=CARTESIAN_POINT('',(-10.95,3.89,1.8));
#1224=CARTESIAN_POINT('',(-10.95,3.89,1.7));
#1225=CARTESIAN_POINT('',(-10.95,-3.89,1.8));
#1226=CARTESIAN_POINT('',(-10.95,-3.89,1.7));
#1227=CARTESIAN_POINT('',(-10.95,-4.19,1.8));
#1228=CARTESIAN_POINT('',(-0.149999999999999,-4.19,1.8));
#1229=CARTESIAN_POINT('',(-10.95,-4.19,1.7));
#1230=CARTESIAN_POINT('',(-0.149999999999999,-4.19,1.7));
#1231=CARTESIAN_POINT('',(-10.95,-11.97,1.8));
#1232=CARTESIAN_POINT('',(-10.95,-11.97,1.7));
#1233=CARTESIAN_POINT('',(-0.15,-11.97,1.8));
#1234=CARTESIAN_POINT('',(-0.15,-11.97,1.7));
#1235=CARTESIAN_POINT('',(-0.15,11.97,1.8));
#1236=CARTESIAN_POINT('',(-0.149999999999999,4.19,1.8));
#1237=CARTESIAN_POINT('',(-0.149999999999999,11.97,1.7));
#1238=CARTESIAN_POINT('',(-0.149999999999999,4.19,1.7));
#1239=CARTESIAN_POINT('',(-10.95,11.97,1.8));
#1240=CARTESIAN_POINT('',(-10.95,11.97,1.7));
#1241=CARTESIAN_POINT('',(-10.95,4.19,1.8));
#1242=CARTESIAN_POINT('',(-10.95,4.19,1.7));
#1243=CARTESIAN_POINT('',(0.149999999999999,3.89,1.8));
#1244=CARTESIAN_POINT('',(10.95,3.89,1.8));
#1245=CARTESIAN_POINT('',(0.149999999999999,3.89,1.7));
#1246=CARTESIAN_POINT('',(10.95,3.89,1.7));
#1247=CARTESIAN_POINT('',(0.149999999999999,-3.89,1.8));
#1248=CARTESIAN_POINT('',(0.149999999999999,-3.89,1.7));
#1249=CARTESIAN_POINT('',(10.95,-3.89,1.8));
#1250=CARTESIAN_POINT('',(10.95,-3.89,1.7));
#1251=CARTESIAN_POINT('',(10.95,-4.19,1.8));
#1252=CARTESIAN_POINT('',(10.95,-11.97,1.8));
#1253=CARTESIAN_POINT('',(10.95,-4.19,1.7));
#1254=CARTESIAN_POINT('',(10.95,-11.97,1.7));
#1255=CARTESIAN_POINT('',(0.149999999999999,-4.19,1.8));
#1256=CARTESIAN_POINT('',(0.149999999999999,-4.19,1.7));
#1257=CARTESIAN_POINT('',(0.15,-11.97,1.8));
#1258=CARTESIAN_POINT('',(0.15,-11.97,1.7));
#1259=CARTESIAN_POINT('',(0.15,11.97,1.8));
#1260=CARTESIAN_POINT('',(10.95,11.97,1.8));
#1261=CARTESIAN_POINT('',(0.149999999999999,11.97,1.7));
#1262=CARTESIAN_POINT('',(10.95,11.97,1.7));
#1263=CARTESIAN_POINT('',(0.149999999999999,4.19,1.8));
#1264=CARTESIAN_POINT('',(0.149999999999999,4.19,1.7));
#1265=CARTESIAN_POINT('',(10.95,4.19,1.8));
#1266=CARTESIAN_POINT('',(10.95,4.19,1.7));
#1267=CARTESIAN_POINT('',(-11.5,-12.5,1.8));
#1268=CARTESIAN_POINT('',(-6.,-10.5,0.1));
#1269=CARTESIAN_POINT('',(-6.,-12.5,0.1));
#1270=CARTESIAN_POINT('',(-6.,-10.5,0.2));
#1271=CARTESIAN_POINT('',(-6.,-10.5,0.1));
#1272=CARTESIAN_POINT('',(-6.,-12.5,0.2));
#1273=CARTESIAN_POINT('',(-6.,-10.5,0.2));
#1274=CARTESIAN_POINT('',(-6.,-12.5,0.1));
#1275=CARTESIAN_POINT('',(-6.,-12.5,0.2));
#1276=CARTESIAN_POINT('',(6.,-10.5,0.1));
#1277=CARTESIAN_POINT('',(-6.,-10.5,0.1));
#1278=CARTESIAN_POINT('',(6.,-10.5,0.2));
#1279=CARTESIAN_POINT('',(6.,-10.5,0.1));
#1280=CARTESIAN_POINT('',(-6.,-10.5,0.2));
#1281=CARTESIAN_POINT('',(6.,-10.5,0.2));
#1282=CARTESIAN_POINT('',(6.,-12.5,0.1));
#1283=CARTESIAN_POINT('',(6.,-10.5,0.1));
#1284=CARTESIAN_POINT('',(6.,-12.5,0.2));
#1285=CARTESIAN_POINT('',(6.,-12.5,0.1));
#1286=CARTESIAN_POINT('',(6.,-10.5,0.2));
#1287=CARTESIAN_POINT('',(6.,-12.5,0.2));
#1288=CARTESIAN_POINT('',(-6.,-12.5,0.2));
#1289=CARTESIAN_POINT('',(6.,-12.5,0.2));
#1290=CARTESIAN_POINT('',(-11.5,-12.5,0.1));
#1291=CARTESIAN_POINT('',(-6.,-12.5,0.1));
#1292=CARTESIAN_POINT('',(-11.5,12.5,0.1));
#1293=CARTESIAN_POINT('',(-11.5,-12.5,0.1));
#1294=CARTESIAN_POINT('',(-6.,12.5,0.1));
#1295=CARTESIAN_POINT('',(-11.5,12.5,0.1));
#1296=CARTESIAN_POINT('',(-6.,10.5,0.1));
#1297=CARTESIAN_POINT('',(-6.,12.5,0.1));
#1298=CARTESIAN_POINT('',(6.,10.5,0.1));
#1299=CARTESIAN_POINT('',(-6.,10.5,0.1));
#1300=CARTESIAN_POINT('',(6.,12.5,0.1));
#1301=CARTESIAN_POINT('',(6.,10.5,0.1));
#1302=CARTESIAN_POINT('',(11.5,12.5,0.1));
#1303=CARTESIAN_POINT('',(6.,12.5,0.1));
#1304=CARTESIAN_POINT('',(11.5,-12.5,0.1));
#1305=CARTESIAN_POINT('',(11.5,12.5,0.1));
#1306=CARTESIAN_POINT('',(6.,-12.5,0.1));
#1307=CARTESIAN_POINT('',(11.5,-12.5,0.1));
#1308=CARTESIAN_POINT('',(-6.,12.5,0.2));
#1309=CARTESIAN_POINT('',(-6.,12.5,0.1));
#1310=CARTESIAN_POINT('',(-6.,10.5,0.2));
#1311=CARTESIAN_POINT('',(-6.,12.5,0.2));
#1312=CARTESIAN_POINT('',(-6.,10.5,0.1));
#1313=CARTESIAN_POINT('',(-6.,10.5,0.2));
#1314=CARTESIAN_POINT('',(6.,10.5,0.2));
#1315=CARTESIAN_POINT('',(6.,10.5,0.1));
#1316=CARTESIAN_POINT('',(6.,12.5,0.2));
#1317=CARTESIAN_POINT('',(6.,10.5,0.2));
#1318=CARTESIAN_POINT('',(6.,12.5,0.1));
#1319=CARTESIAN_POINT('',(6.,12.5,0.2));
#1320=CARTESIAN_POINT('',(6.,10.5,0.2));
#1321=CARTESIAN_POINT('',(-6.,10.5,0.2));
#1322=CARTESIAN_POINT('',(6.,12.5,0.2));
#1323=CARTESIAN_POINT('',(-6.,12.5,0.2));
#1324=CARTESIAN_POINT('',(-11.5,12.5,0.1));
#1325=CARTESIAN_POINT('',(-11.5,12.5,1.8));
#1326=CARTESIAN_POINT('',(-11.5,12.5,1.8));
#1327=CARTESIAN_POINT('',(11.5,12.5,1.8));
#1328=CARTESIAN_POINT('',(11.5,12.5,1.8));
#1329=CARTESIAN_POINT('',(11.5,12.5,0.1));
#1330=CARTESIAN_POINT('',(11.5,12.5,1.8));
#1331=CARTESIAN_POINT('',(11.5,-12.5,1.8));
#1332=CARTESIAN_POINT('',(11.5,-12.5,1.8));
#1333=CARTESIAN_POINT('',(11.5,-12.5,0.1));
#1334=CARTESIAN_POINT('',(-0.149999999999999,3.89,1.8));
#1335=CARTESIAN_POINT('',(-0.149999999999999,-3.89,1.8));
#1336=CARTESIAN_POINT('',(-0.149999999999999,3.89,1.7));
#1337=CARTESIAN_POINT('',(-0.149999999999999,3.89,1.8));
#1338=CARTESIAN_POINT('',(-0.149999999999999,-3.89,1.7));
#1339=CARTESIAN_POINT('',(-0.149999999999999,3.89,1.7));
#1340=CARTESIAN_POINT('',(-0.149999999999999,-3.89,1.8));
#1341=CARTESIAN_POINT('',(-0.149999999999999,-3.89,1.7));
#1342=CARTESIAN_POINT('',(-10.95,3.89,1.8));
#1343=CARTESIAN_POINT('',(-0.149999999999999,3.89,1.8));
#1344=CARTESIAN_POINT('',(-10.95,3.89,1.7));
#1345=CARTESIAN_POINT('',(-10.95,3.89,1.8));
#1346=CARTESIAN_POINT('',(-0.149999999999999,3.89,1.7));
#1347=CARTESIAN_POINT('',(-10.95,3.89,1.7));
#1348=CARTESIAN_POINT('',(-10.95,-3.89,1.8));
#1349=CARTESIAN_POINT('',(-10.95,3.89,1.8));
#1350=CARTESIAN_POINT('',(-10.95,-3.89,1.7));
#1351=CARTESIAN_POINT('',(-10.95,-3.89,1.8));
#1352=CARTESIAN_POINT('',(-10.95,3.89,1.7));
#1353=CARTESIAN_POINT('',(-10.95,-3.89,1.7));
#1354=CARTESIAN_POINT('',(-0.149999999999999,-3.89,1.8));
#1355=CARTESIAN_POINT('',(-10.95,-3.89,1.8));
#1356=CARTESIAN_POINT('',(-10.95,-3.89,1.7));
#1357=CARTESIAN_POINT('',(-0.149999999999999,-3.89,1.7));
#1358=CARTESIAN_POINT('',(-10.95,-4.19,1.8));
#1359=CARTESIAN_POINT('',(-0.149999999999999,-4.19,1.8));
#1360=CARTESIAN_POINT('',(-10.95,-4.19,1.7));
#1361=CARTESIAN_POINT('',(-10.95,-4.19,1.8));
#1362=CARTESIAN_POINT('',(-0.149999999999999,-4.19,1.7));
#1363=CARTESIAN_POINT('',(-10.95,-4.19,1.7));
#1364=CARTESIAN_POINT('',(-0.149999999999999,-4.19,1.8));
#1365=CARTESIAN_POINT('',(-0.149999999999999,-4.19,1.7));
#1366=CARTESIAN_POINT('',(-10.95,-11.97,1.8));
#1367=CARTESIAN_POINT('',(-10.95,-4.19,1.8));
#1368=CARTESIAN_POINT('',(-10.95,-11.97,1.7));
#1369=CARTESIAN_POINT('',(-10.95,-11.97,1.8));
#1370=CARTESIAN_POINT('',(-10.95,-4.19,1.7));
#1371=CARTESIAN_POINT('',(-10.95,-11.97,1.7));
#1372=CARTESIAN_POINT('',(-0.15,-11.97,1.8));
#1373=CARTESIAN_POINT('',(-10.95,-11.97,1.8));
#1374=CARTESIAN_POINT('',(-0.15,-11.97,1.7));
#1375=CARTESIAN_POINT('',(-0.15,-11.97,1.8));
#1376=CARTESIAN_POINT('',(-10.95,-11.97,1.7));
#1377=CARTESIAN_POINT('',(-0.15,-11.97,1.7));
#1378=CARTESIAN_POINT('',(-0.149999999999999,-4.19,1.8));
#1379=CARTESIAN_POINT('',(-0.15,-11.97,1.8));
#1380=CARTESIAN_POINT('',(-0.15,-11.97,1.7));
#1381=CARTESIAN_POINT('',(-0.149999999999999,-4.19,1.7));
#1382=CARTESIAN_POINT('',(-0.15,11.97,1.8));
#1383=CARTESIAN_POINT('',(-0.149999999999999,4.19,1.8));
#1384=CARTESIAN_POINT('',(-0.149999999999999,11.97,1.7));
#1385=CARTESIAN_POINT('',(-0.15,11.97,1.8));
#1386=CARTESIAN_POINT('',(-0.149999999999999,4.19,1.7));
#1387=CARTESIAN_POINT('',(-0.149999999999999,11.97,1.7));
#1388=CARTESIAN_POINT('',(-0.149999999999999,4.19,1.8));
#1389=CARTESIAN_POINT('',(-0.149999999999999,4.19,1.7));
#1390=CARTESIAN_POINT('',(-10.95,11.97,1.8));
#1391=CARTESIAN_POINT('',(-0.15,11.97,1.8));
#1392=CARTESIAN_POINT('',(-10.95,11.97,1.7));
#1393=CARTESIAN_POINT('',(-10.95,11.97,1.8));
#1394=CARTESIAN_POINT('',(-0.149999999999999,11.97,1.7));
#1395=CARTESIAN_POINT('',(-10.95,11.97,1.7));
#1396=CARTESIAN_POINT('',(-10.95,4.19,1.8));
#1397=CARTESIAN_POINT('',(-10.95,11.97,1.8));
#1398=CARTESIAN_POINT('',(-10.95,4.19,1.7));
#1399=CARTESIAN_POINT('',(-10.95,4.19,1.8));
#1400=CARTESIAN_POINT('',(-10.95,11.97,1.7));
#1401=CARTESIAN_POINT('',(-10.95,4.19,1.7));
#1402=CARTESIAN_POINT('',(-0.149999999999999,4.19,1.8));
#1403=CARTESIAN_POINT('',(-10.95,4.19,1.8));
#1404=CARTESIAN_POINT('',(-10.95,4.19,1.7));
#1405=CARTESIAN_POINT('',(-0.149999999999999,4.19,1.7));
#1406=CARTESIAN_POINT('',(0.149999999999999,3.89,1.8));
#1407=CARTESIAN_POINT('',(10.95,3.89,1.8));
#1408=CARTESIAN_POINT('',(0.149999999999999,3.89,1.7));
#1409=CARTESIAN_POINT('',(0.149999999999999,3.89,1.8));
#1410=CARTESIAN_POINT('',(10.95,3.89,1.7));
#1411=CARTESIAN_POINT('',(0.149999999999999,3.89,1.7));
#1412=CARTESIAN_POINT('',(10.95,3.89,1.8));
#1413=CARTESIAN_POINT('',(10.95,3.89,1.7));
#1414=CARTESIAN_POINT('',(0.149999999999999,-3.89,1.8));
#1415=CARTESIAN_POINT('',(0.149999999999999,3.89,1.8));
#1416=CARTESIAN_POINT('',(0.149999999999999,-3.89,1.7));
#1417=CARTESIAN_POINT('',(0.149999999999999,-3.89,1.8));
#1418=CARTESIAN_POINT('',(0.149999999999999,3.89,1.7));
#1419=CARTESIAN_POINT('',(0.149999999999999,-3.89,1.7));
#1420=CARTESIAN_POINT('',(10.95,-3.89,1.8));
#1421=CARTESIAN_POINT('',(0.149999999999999,-3.89,1.8));
#1422=CARTESIAN_POINT('',(10.95,-3.89,1.7));
#1423=CARTESIAN_POINT('',(10.95,-3.89,1.8));
#1424=CARTESIAN_POINT('',(0.149999999999999,-3.89,1.7));
#1425=CARTESIAN_POINT('',(10.95,-3.89,1.7));
#1426=CARTESIAN_POINT('',(10.95,3.89,1.8));
#1427=CARTESIAN_POINT('',(10.95,-3.89,1.8));
#1428=CARTESIAN_POINT('',(10.95,-3.89,1.7));
#1429=CARTESIAN_POINT('',(10.95,3.89,1.7));
#1430=CARTESIAN_POINT('',(10.95,-4.19,1.8));
#1431=CARTESIAN_POINT('',(10.95,-11.97,1.8));
#1432=CARTESIAN_POINT('',(10.95,-4.19,1.7));
#1433=CARTESIAN_POINT('',(10.95,-4.19,1.8));
#1434=CARTESIAN_POINT('',(10.95,-11.97,1.7));
#1435=CARTESIAN_POINT('',(10.95,-4.19,1.7));
#1436=CARTESIAN_POINT('',(10.95,-11.97,1.8));
#1437=CARTESIAN_POINT('',(10.95,-11.97,1.7));
#1438=CARTESIAN_POINT('',(0.149999999999999,-4.19,1.8));
#1439=CARTESIAN_POINT('',(10.95,-4.19,1.8));
#1440=CARTESIAN_POINT('',(0.149999999999999,-4.19,1.7));
#1441=CARTESIAN_POINT('',(0.149999999999999,-4.19,1.8));
#1442=CARTESIAN_POINT('',(10.95,-4.19,1.7));
#1443=CARTESIAN_POINT('',(0.149999999999999,-4.19,1.7));
#1444=CARTESIAN_POINT('',(0.15,-11.97,1.8));
#1445=CARTESIAN_POINT('',(0.149999999999999,-4.19,1.8));
#1446=CARTESIAN_POINT('',(0.15,-11.97,1.7));
#1447=CARTESIAN_POINT('',(0.15,-11.97,1.8));
#1448=CARTESIAN_POINT('',(0.149999999999999,-4.19,1.7));
#1449=CARTESIAN_POINT('',(0.15,-11.97,1.7));
#1450=CARTESIAN_POINT('',(10.95,-11.97,1.8));
#1451=CARTESIAN_POINT('',(0.15,-11.97,1.8));
#1452=CARTESIAN_POINT('',(0.15,-11.97,1.7));
#1453=CARTESIAN_POINT('',(10.95,-11.97,1.7));
#1454=CARTESIAN_POINT('',(0.15,11.97,1.8));
#1455=CARTESIAN_POINT('',(10.95,11.97,1.8));
#1456=CARTESIAN_POINT('',(0.149999999999999,11.97,1.7));
#1457=CARTESIAN_POINT('',(0.15,11.97,1.8));
#1458=CARTESIAN_POINT('',(10.95,11.97,1.7));
#1459=CARTESIAN_POINT('',(0.149999999999999,11.97,1.7));
#1460=CARTESIAN_POINT('',(10.95,11.97,1.8));
#1461=CARTESIAN_POINT('',(10.95,11.97,1.7));
#1462=CARTESIAN_POINT('',(0.149999999999999,4.19,1.8));
#1463=CARTESIAN_POINT('',(0.15,11.97,1.8));
#1464=CARTESIAN_POINT('',(0.149999999999999,4.19,1.7));
#1465=CARTESIAN_POINT('',(0.149999999999999,4.19,1.8));
#1466=CARTESIAN_POINT('',(0.149999999999999,11.97,1.7));
#1467=CARTESIAN_POINT('',(0.149999999999999,4.19,1.7));
#1468=CARTESIAN_POINT('',(10.95,4.19,1.8));
#1469=CARTESIAN_POINT('',(0.149999999999999,4.19,1.8));
#1470=CARTESIAN_POINT('',(10.95,4.19,1.7));
#1471=CARTESIAN_POINT('',(10.95,4.19,1.8));
#1472=CARTESIAN_POINT('',(0.149999999999999,4.19,1.7));
#1473=CARTESIAN_POINT('',(10.95,4.19,1.7));
#1474=CARTESIAN_POINT('',(10.95,11.97,1.8));
#1475=CARTESIAN_POINT('',(10.95,4.19,1.8));
#1476=CARTESIAN_POINT('',(10.95,4.19,1.7));
#1477=CARTESIAN_POINT('',(10.95,11.97,1.7));
#1478=CARTESIAN_POINT('',(11.5,-12.5,1.8));
#1479=CARTESIAN_POINT('',(-11.5,-12.5,1.8));
#1480=CARTESIAN_POINT('',(-11.5,-12.5,1.8));
#1481=CARTESIAN_POINT('',(-11.5,-12.5,0.1));
#1482=CARTESIAN_POINT('',(-11.5,-12.5,1.8));
#1483=CARTESIAN_POINT('',(-11.5,12.5,1.8));
#1484=CARTESIAN_POINT('',(0.,0.,0.));
ENDSEC;
END-ISO-10303-21;
